<?xml version="1.0" encoding="utf-8"?>
<!-- Generator: Adobe Illustrator 16.0.0, SVG Export Plug-In . SVG Version: 6.00 Build 0)  -->
<!DOCTYPE svg PUBLIC "-//W3C//DTD SVG 1.0//EN" "http://www.w3.org/TR/2001/REC-SVG-20010904/DTD/svg10.dtd">
<svg version="1.0" xmlns="http://www.w3.org/2000/svg" xmlns:xlink="http://www.w3.org/1999/xlink" x="0px" y="0px" width="1024px"
	 height="768px" viewBox="0 0 1024 768" enable-background="new 0 0 1024 768" xml:space="preserve">
<g id="Livello_2">
</g>
<g id="Livello_1">
	<g>
		<path fill-rule="evenodd" clip-rule="evenodd" fill="#593086" d="M422.185,340.456c-0.548-0.467-1.091-0.938-1.645-1.396
			c-0.15-0.125-0.195-0.213-0.042-0.376c0.267-0.286,0.514-0.59,0.762-0.893c0.086-0.104,0.146-0.112,0.253-0.021
			c0.529,0.456,1.061,0.908,1.599,1.353c0.13,0.107,0.092,0.179,0.003,0.283c-0.292,0.347-0.578,0.7-0.866,1.051
			C422.226,340.456,422.206,340.456,422.185,340.456z"/>
		<path fill-rule="evenodd" clip-rule="evenodd" fill="#A792C0" d="M400.589,293.315c-0.019,0.074-0.08,0.057-0.131,0.057
			c0-1.062,0-2.124,0-3.186c0.044-0.019,0.078-0.007,0.104,0.033c0.025,0.047,0.046,0.097,0.047,0.15
			C400.619,291.351,400.655,292.333,400.589,293.315z"/>
		<path fill-rule="evenodd" clip-rule="evenodd" fill="#8465A3" d="M440.471,253.105c-0.001,0.021-0.001,0.043-0.003,0.064
			c-0.08,0.085-0.188,0.095-0.294,0.096c-0.849,0.008-1.697,0.008-2.545,0c-0.084,0-0.168-0.012-0.246-0.055
			c-0.042-0.025-0.055-0.06-0.035-0.105C438.388,253.105,439.429,253.105,440.471,253.105z"/>
		<path fill-rule="evenodd" clip-rule="evenodd" fill="#896BA7" d="M400.514,290.19c-0.019,0-0.039-0.002-0.056-0.004
			c0-0.212,0-0.425,0-0.637c0.023,0.005,0.047,0.011,0.071,0.017C400.65,289.777,400.662,289.985,400.514,290.19z"/>
		<path fill-rule="evenodd" clip-rule="evenodd" fill="#A792C0" d="M437.348,253.105c0.001,0.02,0,0.039-0.003,0.059
			c-0.207,0.156-0.417,0.115-0.628,0.01c-0.001-0.023-0.004-0.046-0.006-0.069C436.924,253.105,437.135,253.105,437.348,253.105z"/>
		<path fill-rule="evenodd" clip-rule="evenodd" fill="#582F85" d="M408.097,294.694c0.564-1.242,1.416-2.258,2.48-3.098
			c0.217-0.171,0.232-0.239,0.004-0.417c-4.447-3.489-4.598-10.277-0.287-13.883c1.129-0.944,2.506-1.405,3.95-1.646
			c2.214-0.367,4.273,0.121,6.248,1.119c2.113,1.067,3.919,2.512,5.458,4.311c0.974,1.139,2.146,2.053,3.448,2.793
			c0.532,0.302,1.107,0.337,1.698,0.198c0.163-0.039,0.203-0.098,0.136-0.264c-0.602-1.502-1.038-3.052-1.332-4.643
			c-0.036-0.192-0.149-0.285-0.293-0.385c-3.019-2.088-5.207-4.836-6.351-8.331c-0.915-2.792-0.521-5.489,1.081-7.953
			c0.761-1.17,1.895-1.968,3.152-2.561c3.865-1.822,8.327-0.771,10.978,2.58c0.139,0.174,0.19,0.211,0.35,0.011
			c1.773-2.241,4.103-3.44,6.952-3.495c2.786-0.054,5.15,0.993,6.973,3.112c0.922,1.073,1.376,2.404,1.627,3.79
			c0.431,2.37-0.104,4.565-1.208,6.665c-1.311,2.492-3.108,4.545-5.427,6.14c-0.156,0.108-0.226,0.234-0.258,0.41
			c-0.297,1.59-0.733,3.141-1.336,4.642c-0.079,0.196-0.009,0.234,0.155,0.272c0.585,0.136,1.146,0.065,1.663-0.232
			c1.354-0.779,2.545-1.761,3.567-2.946c2.022-2.341,4.466-4.083,7.436-4.984c2.792-0.847,5.468-0.43,7.87,1.216
			c1.367,0.938,2.234,2.335,2.802,3.898c1.329,3.662,0.152,7.775-2.915,10.159c-0.222,0.174-0.168,0.231,0.012,0.375
			c1.654,1.315,2.713,3.011,3.201,5.065c0.024,0.102,0.028,0.209,0.042,0.313c0.043,0.108,0.053,0.226-0.072,0.266
			c-0.126,0.039-0.188-0.077-0.224-0.175c-0.065-0.178-0.103-0.365-0.109-0.554c-0.013-0.406-0.235-0.727-0.421-1.063
			c-0.201-0.302-0.306-0.651-0.464-0.975c-0.524-1.078-1.265-1.98-2.18-2.746c-0.35-0.294-0.352-0.361-0.001-0.652
			c1.735-1.445,2.743-3.285,3.006-5.533c0.501-4.251-2.502-8.331-6.891-9.041c-1.666-0.27-3.256-0.033-4.781,0.661
			c-1.677,0.764-3.262,1.684-4.657,2.904c-1.063,0.93-2.074,1.913-3.07,2.913c-1.125,1.129-2.472,1.813-4.064,1.986
			c-0.216,0.023-0.346,0.113-0.43,0.313c-0.764,1.81-1.456,3.646-2.08,5.509c-0.502,1.505-0.885,3.034-1.082,4.61
			c-0.039,0.318-0.13,0.4-0.458,0.401c-0.604,0.002-1.206-0.089-1.812-0.067c-0.21,0.007-0.291-0.117-0.309-0.32
			c-0.087-0.982-0.123-1.967-0.201-2.949c-0.09-1.12-0.142-2.241-0.227-3.361c-0.062-0.802-0.117-1.606-0.155-2.411
			c-0.036-0.75-0.09-1.501-0.164-2.25c-0.042-0.422-0.046-0.846-0.073-1.27c-0.088-1.417-0.193-2.833-0.279-4.249
			c-0.022-0.369-0.026-0.742-0.088-1.109c-0.003-0.101-0.001-0.202-0.001-0.302c0-0.102,0-0.204,0-0.301
			c0,0.005-0.001,0.002-0.001,0.006c0,0.082,0,0.158,0,0.235c-0.001,0.117,0.003,0.232-0.006,0.349
			c-0.056,0.771-0.122,1.542-0.164,2.314c-0.044,0.815-0.108,1.628-0.168,2.441c-0.031,0.412-0.061,0.825-0.08,1.237
			c-0.042,0.9-0.133,1.796-0.176,2.696c-0.039,0.783-0.099,1.565-0.151,2.348c-0.056,0.866-0.112,1.734-0.167,2.601
			c-0.049,0.771-0.121,1.542-0.149,2.315c-0.021,0.572-0.077,1.142-0.133,1.711c-0.015,0.163-0.099,0.248-0.26,0.268
			c-0.23,0.03-0.459,0.075-0.696,0.072c-0.371-0.004-0.742-0.009-1.113,0.002c-0.417,0.013-0.46-0.022-0.512-0.445
			c-0.193-1.565-0.579-3.083-1.084-4.575c-0.604-1.781-1.252-3.542-1.973-5.279c-0.133-0.322-0.318-0.485-0.668-0.528
			c-1.627-0.197-2.954-0.964-4.108-2.109c-1.341-1.33-2.653-2.697-4.211-3.781c-1.417-0.986-2.911-1.861-4.577-2.33
			c-2.842-0.798-5.432-0.211-7.681,1.702c-1.703,1.45-2.632,3.326-2.805,5.56c-0.194,2.492,0.599,4.633,2.329,6.43
			c0.25,0.26,0.511,0.508,0.792,0.738c0.243,0.198,0.25,0.295,0.015,0.476c-1.048,0.809-1.818,1.833-2.385,3.019
			c-0.046,0.096-0.099,0.189-0.201,0.24C408.208,294.898,408.085,294.891,408.097,294.694z"/>
		<path fill-rule="evenodd" clip-rule="evenodd" fill="#593085" d="M469.188,295.353c0.109,0.021,0.143,0.115,0.18,0.201
			c0.182,0.406,0.328,0.822,0.346,1.272c0.001,0.042,0,0.087,0.016,0.125c0.03,0.076,0.044,0.196,0.133,0.196
			c0.136,0,0.093-0.134,0.111-0.22c0.066,0.103,0.072,0.216,0.059,0.333c-0.084,0.078-0.121,0.184-0.105,0.287
			c0.066,0.451-0.033,0.901-0.003,1.353c0.013,0.194,0.04,0.376,0.174,0.526c0.015,0.16,0.003,0.315-0.059,0.465
			c-0.047-0.025-0.062-0.081-0.12-0.139c-0.044,0.208-0.044,0.39,0.05,0.567c0.004,0.097,0.004,0.192-0.055,0.276
			c-0.02-0.004-0.03-0.006-0.03-0.006c-0.007,0.006-0.009,0.017-0.003,0.03c0.006,0.012,0.015,0.018,0.025,0.018
			c0.012,0.079-0.004,0.15-0.058,0.212c-0.151-0.008-0.158,0.123-0.184,0.213c-0.117,0.406-0.29,0.786-0.459,1.171
			c-0.114,0.26-0.166,0.55-0.244,0.828c-0.747,1.345-1.744,2.438-3.145,3.121c-1.125,0.548-2.3,0.911-3.559,0.964
			c-0.046-0.08,0.056-0.1,0.063-0.15c-0.567,0.008-1.135,0.123-1.75-0.05c0.143,0.094,0.341-0.02,0.346,0.203
			c-1.162-0.042-2.248-0.376-3.309-0.83c-2.338-1-4.296-2.525-6.042-4.348c0.029-0.169-0.049-0.241-0.214-0.232
			c-0.2-0.209-0.416-0.405-0.57-0.653c0-0.081-0.02-0.145-0.119-0.14c-0.338-0.353-0.604-0.761-0.89-1.154
			c-0.062-0.086-0.118-0.176-0.179-0.262c-0.457-0.645-0.457-0.64-1.199-0.436c-0.57,0.157-1.146,0.292-1.739,0.342
			c-0.025-0.013-0.031-0.033-0.023-0.056c0.009-0.01,0.021-0.021,0.035-0.027c-0.012,0-0.023,0.007-0.037,0.021
			c-0.06,0.054,0.041,0.029,0.029,0.06c-0.702,0.174-1.422,0.223-2.137,0.291c-0.928,0.087-1.859,0.149-2.79,0.188
			c-0.236,0.01-0.257,0.181-0.371,0.286c-0.068,0.017-0.068,0.068-0.061,0.122c-0.04,0.118-0.081,0.236-0.127,0.372
			c0.313,0.031,0.607,0.013,0.898-0.024c0.183-0.023,0.266,0.019,0.298,0.211c0.399,2.365,1.364,4.474,2.898,6.316
			c0.127,0.154,0.049,0.241-0.031,0.354c-1.367,1.92-3.058,3.491-5.099,4.674c-0.253,0.146-0.386,0.321-0.449,0.602
			c-0.158,0.682-0.347,1.356-0.514,2.036c-0.05,0.204-0.117,0.274-0.345,0.197c-1.617-0.549-3.238-1.086-4.859-1.62
			c-0.185-0.061-0.192-0.122-0.09-0.279c0.427-0.647,0.78-1.337,1.127-2.031c0.112-0.225,0.101-0.356-0.108-0.529
			c-1.06-0.878-1.971-1.896-2.772-3.014c-0.125-0.175-0.106-0.27,0.022-0.427c1.483-1.811,2.438-3.869,2.827-6.178
			c0.056-0.335,0.241-0.275,0.446-0.268c0.36,0.043,0.723,0.014,1.083,0.016c0.311-0.106,0.63-0.062,0.943-0.04
			c0.223,0.017,0.287,0.192,0.313,0.382c0.089,0.629,0.186,1.258,0.276,1.886c0.195,1.353,0.381,2.707,0.588,4.059
			c0.021,0.136,0.026,0.274,0.037,0.41c0.012,0.03,0,0.065,0.02,0.095c-0.004-0.029-0.004-0.058-0.004-0.089
			c0.257-1.891,0.538-3.776,0.822-5.661c0.038-0.251,0.058-0.505,0.104-0.755c0.043-0.224,0.17-0.328,0.392-0.338
			c0.221-0.011,0.445,0.01,0.662-0.049c0.249,0.013,0.101-0.191,0.154-0.285c0.043-0.301,0.021-0.344-0.278-0.309
			c-0.949,0.111-1.9,0.028-2.849,0.058c-0.309,0.01-0.61-0.047-0.917-0.061c-0.333-0.016-0.347,0.009-0.25,0.322
			c0.037,0.12,0.09,0.241-0.003,0.361c-0.129,0.022-0.257,0.04-0.383-0.013c-0.09-0.211-0.179-0.423-0.268-0.634
			c0.058-0.131,0.063-0.245-0.099-0.313c-0.042,0.082,0.125,0.125,0.036,0.21c-0.583-0.109-1.177-0.082-1.763-0.142
			c-0.766-0.078-1.533-0.143-2.298-0.215c-0.05-0.005-0.098-0.03-0.148-0.046c0.076-0.109,0.189-0.002,0.28-0.06
			c-0.08,0.095-0.222-0.154-0.272,0.062c-1.014-0.086-2.01-0.278-2.978-0.587c-0.234-0.075-0.374-0.027-0.526,0.138
			c-0.471,0.506-0.796,1.12-1.243,1.644c-0.24,0.281-0.451,0.584-0.727,0.833c-0.082,0.007-0.125,0.049-0.123,0.132
			c-0.764,0.898-1.66,1.657-2.571,2.396c-0.705,0.573-1.45,1.094-2.274,1.49c-0.207-0.085-0.286,0.071-0.378,0.202
			c-0.383,0.232-0.786,0.424-1.212,0.567c-0.063,0.004-0.168-0.091-0.17,0.068c-0.856,0.405-1.757,0.629-2.699,0.704
			c0.022-0.128-0.037-0.135-0.151-0.131c-0.638,0.022-1.277,0.019-1.912,0.003c0.058,0.019,0.115,0.041,0.085,0.125
			c-2.834-0.311-5.054-1.575-6.426-4.153c0.092-0.138,0.037-0.27-0.037-0.384c-0.405-0.625-0.516-1.349-0.72-2.043
			c-0.032-0.11,0.031-0.325-0.211-0.301c-0.075-0.122-0.072-0.257-0.063-0.393c0.031-0.043,0.074-0.088,0.066-0.14
			c-0.068-0.536,0.122-1.072-0.001-1.606c-0.056-0.245,0.114-0.507-0.063-0.739c-0.01-0.135-0.013-0.269,0.062-0.389
			c0.024,0.035-0.006-0.01,0.018,0.026c0.006,0.01,0.001,0.001-0.018-0.023c-0.004-0.114-0.001-0.227,0.064-0.328
			c0.241,0.048,0.168-0.161,0.161-0.242c-0.019-0.217,0.057-0.379,0.164-0.559c0.139-0.232,0.191-0.504,0.189-0.78
			c0.023-0.15,0.096-0.277,0.185-0.397c0.043,0.118,0.135,0.151,0.25,0.143c0.084,0.166-0.009,0.313-0.062,0.456
			c-0.559,1.537-0.637,3.105-0.286,4.694c0.135,0.611,0.346,1.202,0.618,1.768c0.065,0.134,0.14,0.262,0.176,0.408
			c-0.004,0.487,0.29,0.824,0.606,1.131c0.118,0.114,0.195,0.31,0.405,0.315c0.387,0.329,0.742,0.689,1.14,1.006
			c1.006,0.802,2.153,1.304,3.397,1.598c0.112,0.026,0.233,0.021,0.331,0.1c0.148,0.256,0.334,0.212,0.534,0.07
			c0.077-0.02,0.151-0.02,0.219,0.028c0.044,0.166,0.168,0.197,0.318,0.195c0.255-0.004,0.51,0.005,0.771-0.006
			c-0.06-0.068-0.2-0.018-0.201-0.15c0.229-0.187,0.491-0.091,0.74-0.09c0.166,0.08,0.328,0.126,0.46-0.062
			c0.486-0.176,1.006-0.246,1.482-0.458c1.229-0.551,2.431-1.149,3.558-1.893c0.087-0.059,0.173-0.123,0.276-0.151
			c0.083-0.036,0.254,0.081,0.229-0.137c0.166-0.214,0.362-0.387,0.632-0.457c0.226-0.021,0.404-0.1,0.436-0.356
			c0.246-0.348,0.577-0.616,0.89-0.892c0.439-0.388,0.801-0.843,1.203-1.262c0.08-0.085,0.146-0.183,0.266-0.217
			c0.337-0.101,0.448-0.385,0.547-0.679c0.04-0.114,0.084-0.225,0.211-0.272c0.16-0.009,0.216-0.1,0.198-0.249
			c0.006-0.032,0.012-0.065,0.033-0.088c0.235-0.242,0.371-0.497,0.105-0.805c0.099-0.171,0.038-0.364,0.069-0.545
			c0.294-0.342,0.718-0.445,1.119-0.566c1.048-0.318,2.13-0.472,3.214-0.599c0.043-0.004,0.084,0.003,0.126,0.011
			c0.069-0.059,0.142,0.214,0.209-0.004c0.105-0.087,0.222-0.077,0.342-0.043c0.094-0.036,0.193,0.359,0.284-0.003
			c0.083-0.096,0.186-0.086,0.292-0.063c0.144,0.036,0.298,0.319,0.423-0.023c0.146-0.1,0.304-0.075,0.462-0.046
			c0.157,0.096,0.306,0.118,0.44-0.041c0.268-0.09,0.54-0.066,0.812-0.027c0.137,0.045,0.219,0.237,0.409,0.148
			c-0.004-0.059-0.139-0.053-0.09-0.149c0.198-0.146,0.417-0.087,0.631-0.064c0.148,0.138,0.297,0.164,0.449,0.004
			c0.144-0.036,0.282-0.036,0.414,0.037c0.09,0.111,0.211,0.121,0.343,0.121c0.771-0.002,1.543-0.001,2.313,0
			c0.131,0,0.254-0.007,0.343-0.119c0.133-0.076,0.272-0.075,0.415-0.04c0.167,0.183,0.334,0.134,0.501-0.001
			c0.198-0.026,0.399-0.075,0.58,0.059c0.04,0.089-0.05,0.099-0.093,0.147c0.203,0.093,0.327-0.059,0.472-0.142
			c0.254-0.039,0.508-0.071,0.756,0.033c0.142,0.239,0.305,0.239,0.488,0.044c0.141-0.043,0.278-0.056,0.41,0.032
			c0.074,0.227,0.182,0.151,0.294,0.033c0.139-0.044,0.275-0.056,0.405,0.03c0.121,0.345,0.284,0.066,0.43,0.026
			c0.106-0.022,0.208-0.032,0.288,0.063c0.047,0.222,0.106-0.046,0.158,0.001c0.355-0.056,0.695,0.05,1.036,0.099
			c0.987,0.141,1.962,0.331,2.898,0.686c0.191,0.073,0.365,0.171,0.516,0.308c0.271,0.244,0.284,0.472,0.044,0.743
			c-0.075,0.086-0.17,0.16-0.208,0.274c-0.02,0.096-0.135,0.232,0.096,0.214c0.216,0.071,0.299,0.259,0.39,0.439
			c-0.003,0.129,0.06,0.207,0.187,0.233c0.17,0.084,0.268,0.228,0.322,0.405c-0.018,0.154,0.016,0.269,0.207,0.257
			c0.24,0.133,0.381,0.365,0.554,0.561c1.296,1.469,2.796,2.69,4.503,3.646c1.182,0.662,2.368,1.332,3.715,1.625
			c0.146,0.032,0.328-0.01,0.433,0.15c-0.001,0.027-0.01,0.041-0.03,0.042c-0.007,0-0.015,0.001-0.021,0.002
			c0.312,0.153,0.624,0.26,0.933-0.01c0.312-0.047,0.624-0.04,0.936-0.007c0.125,0.027,0.217,0.129,0.343,0.155
			c0.177,0.038,0.306-0.028,0.393-0.186c0.065-0.083,0.161-0.091,0.254-0.11c1.688-0.353,3.166-1.098,4.372-2.347
			c0.115-0.121,0.222-0.257,0.383-0.327c0.151-0.024,0.271-0.077,0.235-0.267c0.019-0.081,0.075-0.126,0.149-0.153
			c0.35-0.096,0.448-0.424,0.591-0.69c0.092-0.171,0.161-0.356,0.275-0.519c0.113-0.161,0.152-0.341,0.106-0.537
			c0.065-0.39,0.247-0.741,0.348-1.121c0.386-1.454,0.386-2.905-0.004-4.357C469.195,295.725,469.09,295.548,469.188,295.353z"/>
		<path fill-rule="evenodd" clip-rule="evenodd" fill="#593086" d="M429.46,321.547c-0.455,0.014-0.836-0.222-1.236-0.382
			c-1.417-0.567-2.827-1.151-4.24-1.726c-0.992-0.404-1.347-1.229-0.949-2.217c0.413-1.022,0.826-2.043,1.243-3.064
			c0.344-0.845,1.188-1.208,2.035-0.866c1.671,0.674,3.341,1.354,5.01,2.039c0.97,0.398,1.315,1.502,0.767,2.386
			c-0.072,0.118-0.145,0.096-0.236,0.059c-0.56-0.227-1.117-0.458-1.68-0.677c-0.127-0.049-0.152-0.115-0.139-0.239
			c0.027-0.259-0.111-0.409-0.346-0.502c-0.965-0.387-1.924-0.783-2.889-1.17c-0.343-0.138-0.577-0.045-0.718,0.296
			c-0.3,0.724-0.594,1.451-0.879,2.181c-0.124,0.318-0.014,0.557,0.312,0.691c0.961,0.397,1.923,0.792,2.888,1.178
			c0.408,0.164,0.866-0.179,0.848-0.618c-0.004-0.124-0.114-0.109-0.183-0.137c-0.5-0.206-0.999-0.417-1.506-0.605
			c-0.202-0.074-0.271-0.149-0.17-0.362c0.132-0.277,0.237-0.568,0.343-0.856c0.052-0.143,0.106-0.203,0.275-0.134
			c1.206,0.497,2.413,0.986,3.625,1.469c0.166,0.066,0.168,0.134,0.108,0.282c-0.282,0.675-0.544,1.359-0.828,2.033
			C430.657,321.217,430.118,321.556,429.46,321.547z"/>
		<path fill-rule="evenodd" clip-rule="evenodd" fill="#593086" d="M447.395,314.882c1.146,0.022,1.543,0.798,1.676,1.591
			c0.019,0.114-0.052,0.14-0.144,0.164c-0.584,0.153-1.169,0.307-1.75,0.473c-0.131,0.038-0.179,0.002-0.244-0.108
			c-0.149-0.252-0.384-0.315-0.662-0.239c-0.859,0.234-1.717,0.464-2.576,0.702c-0.344,0.095-0.507,0.359-0.428,0.668
			c0.077,0.298,0.362,0.447,0.702,0.357c1.24-0.328,2.48-0.662,3.72-0.988c0.897-0.236,1.679,0.188,1.94,1.074
			c0.12,0.403,0.279,0.802,0.269,1.237c-0.017,0.687-0.457,1.285-1.115,1.464c-1.668,0.453-3.337,0.901-5.008,1.34
			c-0.817,0.214-1.611-0.258-1.862-1.081c-0.179-0.582-0.179-0.582,0.396-0.738c0.44-0.119,0.881-0.233,1.32-0.356
			c0.133-0.037,0.222-0.049,0.309,0.106c0.125,0.229,0.352,0.292,0.604,0.226c0.903-0.239,1.804-0.475,2.703-0.724
			c0.291-0.082,0.433-0.375,0.352-0.656c-0.082-0.289-0.377-0.437-0.715-0.347c-1.147,0.306-2.292,0.616-3.439,0.924
			c-0.276,0.074-0.551,0.169-0.843,0.135c-0.677-0.079-1.135-0.442-1.349-1.091c-0.096-0.292-0.177-0.589-0.248-0.888
			c-0.192-0.813,0.25-1.622,1.06-1.85c1.663-0.469,3.334-0.908,5.002-1.354C447.197,314.888,447.338,314.889,447.395,314.882z"/>
		<path fill-rule="evenodd" clip-rule="evenodd" fill="#593085" d="M439.458,323.141c-1.442-0.185-2.818-0.279-4.184-0.471
			c-0.809-0.113-1.625-0.168-2.438-0.23c-0.249-0.019-0.331-0.06-0.3-0.348c0.22-1.96,0.421-3.923,0.609-5.887
			c0.028-0.301,0.12-0.347,0.407-0.313c1.696,0.192,3.396,0.36,5.096,0.535c0.505,0.052,1.012,0.104,1.52,0.144
			c0.188,0.016,0.26,0.079,0.23,0.278c-0.053,0.356-0.101,0.715-0.115,1.074c-0.011,0.226-0.101,0.26-0.296,0.238
			c-1.086-0.121-2.174-0.232-3.26-0.346c-0.443-0.045-0.888-0.081-1.329-0.14c-0.18-0.023-0.233,0.04-0.226,0.199
			c0,0.011-0.001,0.021-0.001,0.032c-0.089,0.819-0.089,0.817,0.731,0.903c1.119,0.117,2.236,0.245,3.355,0.35
			c0.232,0.021,0.295,0.104,0.251,0.314c-0.02,0.093-0.021,0.19-0.037,0.284c-0.049,0.268,0.063,0.629-0.145,0.783
			c-0.202,0.147-0.53-0.014-0.802-0.041c-1.078-0.106-2.153-0.222-3.228-0.349c-0.266-0.031-0.392-0.004-0.405,0.315
			c-0.023,0.58-0.05,0.587,0.513,0.65c1.361,0.15,2.721,0.297,4.082,0.433c0.282,0.028,0.449,0.072,0.362,0.423
			c-0.068,0.274-0.089,0.568-0.084,0.853C439.767,323.119,439.661,323.21,439.458,323.141z"/>
		<path fill-rule="evenodd" clip-rule="evenodd" fill="#593085" d="M458.955,314.839c-0.019,0.579-0.241,1.013-0.686,1.308
			c-1.54,1.016-3.082,2.032-4.635,3.026c-0.746,0.478-1.631,0.268-2.119-0.473c-0.636-0.966-1.261-1.938-1.881-2.913
			c-0.458-0.718-0.294-1.647,0.409-2.116c1.562-1.04,3.135-2.067,4.719-3.072c0.799-0.506,1.889-0.084,2.279,0.826
			c0.05,0.116-0.003,0.151-0.076,0.199c-0.514,0.336-1.031,0.669-1.543,1.011c-0.1,0.066-0.162,0.052-0.248-0.021
			c-0.21-0.181-0.423-0.141-0.64,0.001c-0.86,0.566-1.723,1.125-2.582,1.691c-0.335,0.222-0.387,0.445-0.176,0.777
			c0.405,0.635,0.813,1.267,1.222,1.898c0.241,0.371,0.454,0.422,0.822,0.184c0.847-0.547,1.689-1.098,2.531-1.65
			c0.387-0.253,0.449-0.47,0.175-0.839c-0.194-0.26-0.166-0.382,0.117-0.542c0.461-0.259,0.894-0.57,1.34-0.855
			c0.069-0.045,0.146-0.161,0.232-0.019c0.238,0.4,0.566,0.749,0.69,1.211C458.94,314.604,458.943,314.745,458.955,314.839z"/>
		<path fill-rule="evenodd" clip-rule="evenodd" fill="#593085" d="M429.32,307.031c-2.032-0.01-3.692-1.344-4.113-3.214
			c-0.077-0.341-0.065-0.351,0.266-0.268c1.061,0.269,2.1,0.213,3.118-0.204c1.175-0.48,1.849-1.342,2.005-2.607
			c0.058-0.474,0.065-0.479,0.528-0.41c0.903,0.136,1.813,0.197,2.719,0.293c0.121,0.012,0.262-0.027,0.228,0.194
			c-0.298,1.942-0.956,3.714-2.418,5.104c-0.261,0.249-0.556,0.458-0.857,0.659C430.314,306.902,429.794,307.085,429.32,307.031z"/>
		<path fill-rule="evenodd" clip-rule="evenodd" fill="#593085" d="M452.22,303.443c-0.104,0.793-0.392,1.446-0.86,2.01
			c-0.915,1.104-2.102,1.623-3.535,1.536c-0.909-0.054-1.572-0.603-2.189-1.192c-1.187-1.13-1.81-2.568-2.167-4.138
			c-0.063-0.279-0.096-0.564-0.155-0.843c-0.038-0.177,0.037-0.225,0.194-0.235c1.006-0.063,2.01-0.162,3.004-0.324
			c0.198-0.032,0.228,0.057,0.241,0.22c0.055,0.656,0.216,1.284,0.632,1.807c0.77,0.967,1.841,1.314,3.022,1.403
			C451.007,303.73,451.592,303.627,452.22,303.443z"/>
		<path fill-rule="evenodd" clip-rule="evenodd" fill="#593085" d="M460.715,314.018c-0.065-0.058-0.123-0.104-0.174-0.156
			c-1.437-1.443-2.872-2.888-4.311-4.33c-0.117-0.118-0.158-0.19-0.015-0.328c0.374-0.36,0.734-0.734,1.094-1.112
			c0.112-0.12,0.185-0.12,0.301-0.001c1.447,1.465,2.896,2.926,4.347,4.385c0.098,0.098,0.136,0.163,0.016,0.281
			c-0.383,0.38-0.755,0.773-1.133,1.161C460.804,313.953,460.761,313.981,460.715,314.018z"/>
		<path fill-rule="evenodd" clip-rule="evenodd" fill="#593086" d="M433.006,336.841c-1.593,0-3.009-0.509-4.264-1.488
			c-0.214-0.167-0.22-0.246,0.026-0.381c0.72-0.396,1.469-0.707,2.264-0.914c0.148-0.039,0.284-0.035,0.432,0.023
			c0.769,0.302,1.561,0.388,2.371,0.215c0.233-0.05,0.33-0.011,0.247,0.244c-0.128,0.398-0.065,0.784,0.033,1.185
			c0.294,1.205,0.275,1.025-0.758,1.115C433.241,336.85,433.123,336.841,433.006,336.841z"/>
		<path fill-rule="evenodd" clip-rule="evenodd" fill="#593086" d="M433.714,325.804c0.541-0.433,0.717-0.964,0.807-1.563
			c0.114-0.756,0.207-0.789,0.908-0.53c0.743,0.274,1.404,0.695,2.026,1.177c0.327,0.252,0.643,0.52,0.998,0.735
			c0.142,0.088,0.189,0.166,0.101,0.328c-0.136,0.244-0.182,0.513-0.193,0.795c-0.02,0.435-0.192,0.818-0.443,1.173
			c-0.108,0.15-0.2,0.147-0.338,0.052c-0.263-0.178-0.547-0.328-0.801-0.515C435.846,326.777,434.971,326.007,433.714,325.804z"/>
		<path fill-rule="evenodd" clip-rule="evenodd" fill="#593086" d="M452.854,338.022c-0.111-0.023-0.154-0.117-0.214-0.186
			c-0.667-0.755-1.259-1.576-1.998-2.268c-0.124-0.116-0.241-0.245-0.383-0.335c-0.256-0.164-0.294-0.301-0.077-0.557
			c0.395-0.46,0.699-0.989,0.916-1.557c0.102-0.266,0.184-0.222,0.367-0.082c0.928,0.707,1.695,1.571,2.431,2.464
			c0.223,0.27,0.449,0.539,0.678,0.804c0.079,0.091,0.121,0.161,0.003,0.26c-0.545,0.458-1.083,0.922-1.624,1.383
			C452.92,337.976,452.887,337.999,452.854,338.022z"/>
		<path fill-rule="evenodd" clip-rule="evenodd" fill="#593086" d="M438.291,328.368c0.783-0.4,1.139-1.024,1.201-1.832
			c0.02-0.254,0.106-0.278,0.341-0.173c1.082,0.489,2.223,0.764,3.41,0.828c0.272,0.014,0.306,0.073,0.163,0.297
			c-0.139,0.219-0.174,0.474-0.192,0.731c-0.011,0.147-0.03,0.295-0.065,0.438c-0.204,0.822-0.412,0.97-1.24,0.851
			C440.661,329.331,439.478,328.948,438.291,328.368z"/>
		<path fill-rule="evenodd" clip-rule="evenodd" fill="#593086" d="M438.286,331.738c0.849-0.443,1.694-0.739,2.569-0.956
			c0.504-0.125,1.018-0.204,1.533-0.279c0.198-0.029,0.314,0.036,0.421,0.194c0.235,0.351,0.396,0.727,0.405,1.153
			c0.009,0.359,0.145,0.676,0.34,1.01c-0.825,0.068-1.609,0.154-2.374,0.374c-0.449,0.129-0.898,0.262-1.314,0.469
			c-0.3,0.15-0.361,0.04-0.378-0.229c-0.026-0.389-0.145-0.749-0.374-1.068C438.913,332.123,438.643,331.921,438.286,331.738z"/>
		<path fill-rule="evenodd" clip-rule="evenodd" fill="#593086" d="M426.753,335.216c0.257-0.41,0.461-0.82,0.468-1.301
			c0.003-0.202-0.007-0.4-0.049-0.599c-0.171-0.805,0.133-1.418,0.869-1.757c0.944-0.436,1.926-0.758,2.942-0.932
			c0.089,0.092,0.021,0.156,0.001,0.22c-0.125,0.447-0.155,0.897-0.044,1.352c0.069,0.29,0.022,0.564-0.08,0.839
			c-0.039,0.101-0.088,0.152-0.192,0.18c-1.425,0.379-2.699,1.048-3.833,1.989C426.825,335.217,426.803,335.212,426.753,335.216z"/>
		<path fill-rule="evenodd" clip-rule="evenodd" fill="#593086" d="M427.116,325.371c0.649,0.306,1.299,0.61,1.948,0.918
			c0.48,0.227,0.977,0.412,1.49,0.55c0.202,0.055,0.304,0.165,0.359,0.352c0.058,0.197,0.09,0.401,0.043,0.598
			c-0.132,0.55-0.096,1.09,0.088,1.64c-0.31,0.038-0.582-0.072-0.851-0.14c-0.751-0.19-1.479-0.448-2.183-0.774
			c-0.647-0.302-0.974-0.842-0.861-1.558C427.23,326.435,427.266,325.929,427.116,325.371z"/>
		<path fill-rule="evenodd" clip-rule="evenodd" fill="#593086" d="M437.113,329.042c-0.573,0.223-1.12,0.339-1.67,0.435
			c-0.984,0.172-1.978,0.25-2.979,0.176c-0.18-0.014-0.291-0.077-0.383-0.227c-0.23-0.376-0.333-0.783-0.262-1.218
			c0.047-0.285,0.092-0.567,0.05-0.854c-0.029-0.202,0.05-0.229,0.226-0.206c0.741,0.095,1.482,0.089,2.225,0.002
			c0.102-0.013,0.204-0.041,0.298,0.048C435.36,327.9,436.185,328.494,437.113,329.042z"/>
		<path fill-rule="evenodd" clip-rule="evenodd" fill="#593086" d="M450.785,330.825c-0.229,1.703-0.931,3.086-2.142,4.213
			c-0.123,0.114-0.204,0.098-0.322,0.002c-0.166-0.136-0.309-0.29-0.433-0.463c-0.468-0.658-0.544-0.72-1.253-1.017
			c-0.02-0.083,0.058-0.101,0.102-0.135c0.683-0.541,1.165-1.225,1.426-2.057c0.044-0.14,0.114-0.213,0.243-0.262
			c0.411-0.158,0.827-0.253,1.272-0.161C450.037,331.021,450.392,330.975,450.785,330.825z"/>
		<path fill-rule="evenodd" clip-rule="evenodd" fill="#593086" d="M437.079,331.053c-0.303,0.194-0.596,0.376-0.884,0.568
			c-0.531,0.354-1.027,0.752-1.494,1.186c-0.112,0.104-0.219,0.148-0.37,0.128c-0.74-0.094-1.482-0.091-2.223,0.004
			c-0.192,0.024-0.272-0.013-0.238-0.229c0.04-0.263,0.014-0.528-0.045-0.791c-0.068-0.298-0.022-0.593,0.072-0.878
			c0.164-0.5,0.284-0.593,0.812-0.617c1.457-0.066,2.879,0.137,4.272,0.56C437.009,330.993,437.032,331.02,437.079,331.053z"/>
		<path fill-rule="evenodd" clip-rule="evenodd" fill="#593086" d="M442.897,334.198c0.966,0.263,1.871,0.204,2.756-0.146
			c0.117-0.047,0.205,0.008,0.298,0.058c0.333,0.18,0.626,0.416,0.817,0.739c0.217,0.372,0.457,0.708,0.881,0.927
			c-0.547,0.357-1.097,0.59-1.676,0.766c-0.961,0.292-1.939,0.312-2.928,0.208c-0.188-0.019-0.263-0.104-0.234-0.289
			c0.033-0.198,0.043-0.403,0.096-0.595C443.126,335.07,443.132,335.014,442.897,334.198z"/>
		<path fill-rule="evenodd" clip-rule="evenodd" fill="#593086" d="M448.858,325.263c0.874,0.899,1.45,1.907,1.757,3.069
			c0.104,0.391,0.155,0.79,0.206,1.191c0.027,0.213-0.052,0.297-0.245,0.313c-0.179,0.015-0.364,0.06-0.537,0.036
			c-0.583-0.081-1.12,0.009-1.627,0.393c-0.067-0.338-0.034-0.653-0.096-0.958c-0.112-0.569-0.297-1.108-0.626-1.584
			c-0.119-0.169-0.129-0.321-0.067-0.503c0.123-0.357,0.294-0.691,0.578-0.938C448.507,326.013,448.722,325.699,448.858,325.263z"/>
		<path fill-rule="evenodd" clip-rule="evenodd" fill="#593086" d="M443.342,323.319c1.33-0.131,2.563,0.082,3.729,0.659
			c0.293,0.145,0.565,0.331,0.849,0.495c0.124,0.072,0.149,0.149,0.078,0.284c-0.095,0.18-0.204,0.347-0.333,0.501
			c-0.576,0.691-0.576,0.691-0.752,1.491c-0.111,0.013-0.164-0.08-0.235-0.134c-0.647-0.498-1.377-0.785-2.188-0.857
			c-0.191-0.017-0.312-0.086-0.407-0.245c-0.211-0.349-0.372-0.712-0.378-1.128C443.701,324.002,443.552,323.666,443.342,323.319z"
			/>
		<path fill-rule="evenodd" clip-rule="evenodd" fill="#593086" d="M426.17,332.718c-0.284,0.477-0.228,0.966-0.163,1.481
			c0.095,0.738-0.214,1.437-0.34,2.155c-0.009,0.047-0.055,0.09-0.087,0.13c-0.398,0.47-0.801,0.936-1.193,1.41
			c-0.106,0.129-0.179,0.13-0.301,0.023c-0.521-0.452-1.048-0.896-1.577-1.339c-0.098-0.082-0.13-0.138-0.033-0.253
			c1.052-1.235,2.044-2.529,3.389-3.477c0.077-0.054,0.152-0.11,0.229-0.165C426.12,332.694,426.146,332.706,426.17,332.718z"/>
		<path fill-rule="evenodd" clip-rule="evenodd" fill="#593086" d="M422.378,323.284c0.677,0.302,1.283,0.572,1.887,0.839
			c0.465,0.207,0.93,0.415,1.399,0.609c0.174,0.072,0.262,0.18,0.303,0.365c0.069,0.316,0.097,0.638,0.025,0.947
			c-0.139,0.593-0.022,1.11,0.367,1.574c0.031,0.038,0.055,0.081,0.125,0.187c-0.758-0.345-1.45-0.656-2.139-0.97
			c-0.56-0.255-1.114-0.521-1.679-0.764c-0.182-0.079-0.263-0.191-0.287-0.377c-0.037-0.307-0.068-0.621,0.013-0.917
			C422.526,324.298,422.602,323.828,422.378,323.284z"/>
		<path fill-rule="evenodd" clip-rule="evenodd" fill="#593086" d="M455.219,325.845c-0.4,0.183-0.715,0.328-1.029,0.471
			c-0.946,0.429-1.893,0.854-2.833,1.292c-0.18,0.085-0.244,0.064-0.308-0.13c-0.202-0.628-0.495-1.215-0.869-1.759
			c-0.106-0.154-0.126-0.233,0.083-0.321c0.878-0.367,1.75-0.751,2.621-1.136c0.137-0.061,0.257-0.064,0.393,0.002
			c0.298,0.146,0.585,0.317,0.782,0.585C454.353,325.25,454.641,325.648,455.219,325.845z"/>
		<path fill-rule="evenodd" clip-rule="evenodd" fill="#593086" d="M435.254,336.466c0.102-0.466,0.026-0.847-0.133-1.229
			c-0.163-0.39-0.17-0.804-0.096-1.219c0.017-0.086,0.042-0.158,0.125-0.208c0.832-0.489,1.512-1.193,2.361-1.661
			c0.211-0.117,0.325-0.124,0.457,0.088c0.228,0.367,0.397,0.749,0.408,1.186c0.009,0.271,0.074,0.525,0.207,0.759
			c0.059,0.104,0.059,0.167-0.05,0.231c-0.661,0.388-1.194,0.949-1.838,1.36C436.257,336.052,435.797,336.286,435.254,336.466z"/>
		<path fill-rule="evenodd" clip-rule="evenodd" fill="#593086" d="M433.727,323.37c-0.259,0.34-0.344,0.742-0.357,1.175
			c-0.006,0.194-0.092,0.391-0.166,0.577c-0.156,0.39-0.371,0.704-0.869,0.687c-0.173-0.007-0.362,0.048-0.522,0.122
			c-0.386,0.179-0.755,0.128-1.139,0.002c-0.675-0.224-1.33-0.491-1.953-0.84c-0.142-0.08-0.199-0.133-0.038-0.261
			c1.47-1.164,3.125-1.705,5.004-1.508C433.693,323.324,433.699,323.337,433.727,323.37z"/>
		<path fill-rule="evenodd" clip-rule="evenodd" fill="#593086" d="M465.996,268.085c-0.831-0.876-1.595-1.684-2.362-2.489
			c-0.078-0.084-0.108-0.172-0.105-0.286c0.01-0.411,0.104-0.8,0.315-1.153c0.347-0.58,0.353-0.577,0.438-1.202
			c0.105-0.016,0.137,0.082,0.192,0.135c0.769,0.76,1.531,1.528,2.306,2.282c0.149,0.146,0.193,0.285,0.141,0.479
			c-0.08,0.289-0.175,0.568-0.346,0.816c-0.143,0.209-0.314,0.398-0.418,0.636C466.059,267.527,466.012,267.761,465.996,268.085z"/>
		<path fill-rule="evenodd" clip-rule="evenodd" fill="#593086" d="M417.822,259.279c0.98-0.572,1.884-1.102,2.791-1.628
			c0.564-0.326,0.684-0.313,1.195,0.109c0.098,0.081,0.198,0.164,0.275,0.264c0.302,0.402,0.642,0.755,1.218,0.929
			c-0.374,0.205-0.674,0.371-0.977,0.534c-0.645,0.347-1.292,0.687-1.932,1.042c-0.185,0.102-0.351,0.114-0.544,0.042
			c-0.384-0.146-0.727-0.343-0.989-0.667C418.613,259.595,418.289,259.406,417.822,259.279z"/>
		<path fill-rule="evenodd" clip-rule="evenodd" fill="#593086" d="M475.067,279.464c0.333,1.213,0.631,2.317,0.94,3.419
			c0.055,0.194,0.037,0.339-0.109,0.487c-0.188,0.19-0.375,0.382-0.616,0.496c-0.486,0.23-0.995,0.419-1.314,1.003
			c-0.225-0.944-0.424-1.784-0.625-2.624c-0.015-0.062-0.03-0.124-0.044-0.186c-0.186-0.788-0.063-1.165,0.626-1.586
			C474.347,280.214,474.796,280.005,475.067,279.464z"/>
		<path fill-rule="evenodd" clip-rule="evenodd" fill="#593086" d="M402.335,303.235c-0.192-0.704-0.364-1.321-0.531-1.939
			c-0.139-0.51-0.263-1.025-0.415-1.532c-0.049-0.164-0.028-0.278,0.083-0.402c0.22-0.249,0.469-0.468,0.776-0.592
			c0.463-0.185,0.869-0.433,1.178-0.92c0.091,0.372,0.171,0.681,0.247,0.992c0.18,0.75,0.355,1.502,0.541,2.252
			c0.044,0.179,0.018,0.325-0.087,0.475c-0.196,0.283-0.427,0.542-0.73,0.695C402.972,302.479,402.592,302.726,402.335,303.235z"/>
		<path fill-rule="evenodd" clip-rule="evenodd" fill="#593086" d="M422.166,256.831c1.049-0.438,2.005-0.838,2.963-1.234
			c0.653-0.271,0.822-0.226,1.285,0.328c0.062,0.073,0.128,0.145,0.174,0.228c0.239,0.447,0.544,0.831,1.077,1.071
			c-0.853,0.324-1.643,0.624-2.434,0.924c-0.088,0.034-0.177,0.067-0.268,0.101c-0.761,0.284-1.224,0.162-1.706-0.51
			C422.987,257.359,422.702,257.018,422.166,256.831z"/>
		<path fill-rule="evenodd" clip-rule="evenodd" fill="#593086" d="M462.091,318.648c0.291-0.319,0.575-0.658,0.887-0.969
			c0.46-0.456,0.943-0.887,1.403-1.34c0.136-0.135,0.275-0.182,0.454-0.163c0.328,0.035,0.664,0.079,0.94,0.263
			c0.402,0.266,0.808,0.492,1.392,0.459c-0.381,0.39-0.701,0.722-1.026,1.049c-0.484,0.489-0.981,0.968-1.458,1.466
			c-0.161,0.168-0.315,0.207-0.534,0.146c-0.331-0.091-0.648-0.21-0.913-0.43C462.889,318.841,462.503,318.665,462.091,318.648z"/>
		<path fill-rule="evenodd" clip-rule="evenodd" fill="#593086" d="M446.188,256.27c-0.984-0.158-1.893-0.305-2.802-0.451
			c-0.01-0.001-0.021-0.004-0.031-0.006c-0.254-0.058-0.562,0.002-0.75-0.192c-0.293-0.302-0.464-0.697-0.494-1.117
			c-0.033-0.455-0.12-0.876-0.463-1.293c0.51,0.059,0.946,0.105,1.382,0.158c0.674,0.083,1.347,0.181,2.022,0.25
			c0.285,0.029,0.462,0.144,0.557,0.417c0.099,0.283,0.193,0.567,0.182,0.867C445.776,255.372,445.877,255.805,446.188,256.27z"/>
		<path fill-rule="evenodd" clip-rule="evenodd" fill="#593086" d="M401.265,283.45c0.238-0.914,0.455-1.751,0.675-2.588
			c0.062-0.236,0.152-0.468,0.182-0.708c0.043-0.34,0.232-0.493,0.548-0.55c0.273-0.049,0.548-0.096,0.822-0.049
			c0.464,0.079,0.909,0.043,1.326-0.17c0.085,0.076,0.034,0.146,0.015,0.211c-0.292,0.996-0.588,1.99-0.878,2.986
			c-0.04,0.134-0.112,0.216-0.233,0.281c-0.324,0.174-0.672,0.3-1.033,0.28C402.204,283.117,401.744,283.145,401.265,283.45z"/>
		<path fill-rule="evenodd" clip-rule="evenodd" fill="#593086" d="M458.183,321.446c0.676-0.491,1.279-0.93,1.885-1.369
			c0.214-0.155,0.449-0.288,0.641-0.466c0.299-0.277,0.606-0.282,0.962-0.144c0.228,0.088,0.467,0.163,0.647,0.328
			c0.34,0.313,0.711,0.553,1.259,0.611c-0.51,0.395-0.958,0.743-1.407,1.091c-0.469,0.363-0.941,0.721-1.404,1.093
			c-0.14,0.113-0.271,0.139-0.436,0.079c-0.292-0.104-0.578-0.232-0.799-0.448C459.166,321.863,458.791,321.533,458.183,321.446z"/>
		<path fill-rule="evenodd" clip-rule="evenodd" fill="#593086" d="M436.884,255.524c-1.003,0.101-1.917,0.144-2.811,0.293
			c-1.03,0.171-1.208-0.179-1.59-0.96c-0.199-0.403-0.368-0.802-0.798-1.123c0.448-0.066,0.825-0.125,1.203-0.177
			c0.755-0.104,1.512-0.199,2.266-0.311c0.223-0.033,0.384,0.009,0.523,0.196c0.208,0.284,0.396,0.573,0.473,0.925
			C436.243,254.804,436.455,255.174,436.884,255.524z"/>
		<path fill-rule="evenodd" clip-rule="evenodd" fill="#593086" d="M446.681,253.926c1.154,0.304,2.31,0.609,3.466,0.911
			c0.105,0.027,0.16,0.091,0.195,0.188c0.127,0.342,0.217,0.697,0.156,1.059c-0.083,0.484-0.063,0.948,0.164,1.386
			c-0.105,0.067-0.18,0.015-0.26-0.009c-0.964-0.287-1.927-0.577-2.893-0.856c-0.166-0.048-0.278-0.125-0.353-0.283
			c-0.158-0.33-0.284-0.671-0.263-1.038c0.028-0.463,0.022-0.913-0.278-1.313C446.637,253.956,446.659,253.941,446.681,253.926z"/>
		<path fill-rule="evenodd" clip-rule="evenodd" fill="#593086" d="M471.09,275.952c-0.399-0.734-0.763-1.402-1.126-2.071
			c-0.146-0.27-0.273-0.553-0.44-0.809c-0.141-0.213-0.142-0.405-0.046-0.626c0.158-0.365,0.35-0.702,0.668-0.954
			c0.31-0.245,0.486-0.579,0.609-1.009c0.285,0.482,0.544,0.916,0.798,1.352c0.333,0.568,0.653,1.142,0.995,1.704
			c0.104,0.167,0.106,0.309,0.02,0.47c-0.154,0.282-0.324,0.557-0.583,0.749C471.583,275.051,471.248,275.391,471.09,275.952z"/>
		<path fill-rule="evenodd" clip-rule="evenodd" fill="#593086" d="M451.425,255.259c1.064,0.436,2.051,0.839,3.037,1.244
			c0.562,0.23,0.588,0.265,0.585,0.886c-0.001,0.189-0.02,0.382-0.058,0.567c-0.151,0.73-0.155,0.742-0.03,1.374
			c-0.09,0.061-0.16-0.016-0.229-0.046c-0.909-0.404-1.815-0.815-2.727-1.213c-0.203-0.088-0.325-0.209-0.381-0.424
			c-0.095-0.353-0.16-0.711-0.077-1.066C451.645,256.152,451.632,255.744,451.425,255.259z"/>
		<path fill-rule="evenodd" clip-rule="evenodd" fill="#593086" d="M476.836,294.314c-0.136,1.082-0.257,2.108-0.4,3.132
			c-0.105,0.739-0.225,0.842-0.98,0.974c-0.105,0.018-0.21,0.042-0.315,0.042c-0.233,0.001-0.465-0.007-0.693,0.056
			c-0.216,0.059-0.411,0.164-0.637,0.296c-0.046-0.242,0.037-0.441,0.066-0.637c0.13-0.891,0.286-1.777,0.42-2.667
			c0.022-0.154,0.086-0.25,0.207-0.331c0.368-0.246,0.759-0.417,1.212-0.423C476.121,294.75,476.468,294.579,476.836,294.314z"/>
		<path fill-rule="evenodd" clip-rule="evenodd" fill="#593086" d="M460.333,259.787c1.014,0.772,1.963,1.496,2.915,2.218
			c0.102,0.077,0.105,0.176,0.101,0.283c-0.018,0.331-0.071,0.659-0.238,0.947c-0.251,0.438-0.46,0.882-0.375,1.485
			c-0.292-0.234-0.521-0.413-0.747-0.597c-0.618-0.5-1.229-1.005-1.853-1.498c-0.158-0.124-0.226-0.262-0.23-0.457
			c-0.009-0.419,0.047-0.821,0.252-1.195C460.347,260.627,460.382,260.251,460.333,259.787z"/>
		<path fill-rule="evenodd" clip-rule="evenodd" fill="#593086" d="M404.673,274c-0.035-0.131,0.042-0.203,0.086-0.282
			c0.519-0.912,1.048-1.817,1.555-2.735c0.127-0.23,0.281-0.306,0.531-0.301c0.322,0.007,0.64,0.028,0.934,0.158
			c0.427,0.188,0.86,0.29,1.394,0.16c-0.144,0.231-0.254,0.406-0.362,0.582c-0.462,0.748-0.93,1.493-1.382,2.247
			c-0.098,0.161-0.216,0.252-0.393,0.282c-0.337,0.059-0.683,0.094-1.008-0.015C405.579,273.946,405.134,273.87,404.673,274z"/>
		<path fill-rule="evenodd" clip-rule="evenodd" fill="#593086" d="M432.21,256.066c-1.182,0.284-2.27,0.544-3.357,0.807
			c-0.112,0.027-0.206-0.014-0.299-0.069c-0.346-0.205-0.635-0.475-0.805-0.833c-0.194-0.404-0.438-0.746-0.836-0.946
			c0.006-0.112,0.085-0.103,0.139-0.118c1.082-0.295,2.165-0.586,3.246-0.884c0.148-0.041,0.259-0.027,0.377,0.079
			c0.255,0.229,0.491,0.477,0.619,0.795C431.473,255.348,431.708,255.751,432.21,256.066z"/>
		<path fill-rule="evenodd" clip-rule="evenodd" fill="#593086" d="M456.012,257.218c1.097,0.629,2.112,1.217,3.132,1.796
			c0.137,0.078,0.195,0.173,0.206,0.326c0.022,0.354,0.009,0.708-0.139,1.029c-0.204,0.438-0.279,0.885-0.188,1.353
			c-0.101,0.056-0.152-0.017-0.208-0.053c-0.866-0.531-1.728-1.07-2.598-1.595c-0.17-0.103-0.266-0.222-0.292-0.418
			c-0.056-0.414-0.074-0.821,0.083-1.22C456.156,258.059,456.154,257.674,456.012,257.218z"/>
		<path fill-rule="evenodd" clip-rule="evenodd" fill="#593086" d="M454.099,323.737c0.69-0.377,1.321-0.721,1.952-1.064
			c0.271-0.147,0.56-0.266,0.807-0.445c0.328-0.236,0.629-0.17,0.947-0.011c0.209,0.105,0.421,0.219,0.57,0.4
			c0.303,0.37,0.658,0.658,1.205,0.781c-0.588,0.341-1.116,0.647-1.644,0.954c-0.486,0.282-0.979,0.557-1.454,0.853
			c-0.161,0.1-0.29,0.09-0.44,0.013c-0.287-0.146-0.559-0.318-0.75-0.579C454.997,324.237,454.656,323.902,454.099,323.737z"/>
		<path fill-rule="evenodd" clip-rule="evenodd" fill="#593086" d="M408.592,310.828c0.718,0.985,1.377,1.892,2.041,2.797
			c0.062,0.085,0.071,0.171,0.053,0.269c-0.062,0.349-0.157,0.689-0.373,0.971c-0.301,0.393-0.651,0.754-0.654,1.38
			c-0.797-1.029-1.527-1.976-2.26-2.92c-0.076-0.097-0.061-0.188-0.03-0.297c0.099-0.343,0.251-0.661,0.504-0.908
			C408.223,311.781,408.508,311.413,408.592,310.828z"/>
		<path fill-rule="evenodd" clip-rule="evenodd" fill="#593086" d="M474.507,289.519c-0.121-1.201-0.233-2.316-0.35-3.431
			c-0.012-0.117,0.028-0.205,0.099-0.289c0.287-0.338,0.616-0.619,1.049-0.74c0.401-0.111,0.701-0.363,1-0.708
			c0.141,1.043,0.281,2.024,0.404,3.008c0.032,0.265,0.196,0.563,0.025,0.799c-0.226,0.312-0.575,0.51-0.95,0.602
			C475.306,288.877,474.887,289.075,474.507,289.519z"/>
		<path fill-rule="evenodd" clip-rule="evenodd" fill="#593086" d="M419.195,261.247c-0.973,0.705-1.883,1.363-2.789,2.023
			c-0.098,0.071-0.194,0.064-0.302,0.047c-0.362-0.059-0.711-0.173-0.989-0.41c-0.359-0.305-0.727-0.574-1.292-0.62
			c0.38-0.296,0.694-0.542,1.011-0.789c0.593-0.462,1.19-0.92,1.778-1.389c0.158-0.126,0.297-0.161,0.492-0.086
			c0.313,0.119,0.606,0.271,0.833,0.51C418.268,260.881,418.645,261.13,419.195,261.247z"/>
		<path fill-rule="evenodd" clip-rule="evenodd" fill="#593086" d="M414.684,317.968c0.748,0.612,1.435,1.173,2.123,1.734
			c0.032,0.026,0.068,0.051,0.098,0.081c0.18,0.187,0.497,0.271,0.548,0.548c0.081,0.432,0.051,0.877-0.155,1.273
			c-0.203,0.389-0.318,0.779-0.216,1.285c-0.182-0.131-0.313-0.224-0.443-0.321c-0.795-0.602-1.586-1.208-2.385-1.803
			c-0.161-0.12-0.232-0.247-0.21-0.454c0.042-0.364,0.118-0.713,0.315-1.024C414.596,318.909,414.715,318.502,414.684,317.968z"/>
		<path fill-rule="evenodd" clip-rule="evenodd" fill="#593086" d="M474.488,293.555c0.022-0.931,0.044-1.862,0.063-2.793
			c0.003-0.103,0.037-0.181,0.108-0.253c0.301-0.298,0.654-0.527,1.065-0.601c0.433-0.078,0.802-0.245,1.107-0.548
			c0.105,0.052,0.062,0.137,0.062,0.203c0.007,1.091,0.003,2.182,0.018,3.272c0.001,0.207-0.061,0.336-0.232,0.44
			c-0.292,0.18-0.6,0.319-0.943,0.354c-0.433,0.044-0.82,0.194-1.166,0.455C474.363,293.937,474.483,293.737,474.488,293.555z"/>
		<path fill-rule="evenodd" clip-rule="evenodd" fill="#593086" d="M406.65,312.242c-0.653-1.124-1.255-2.16-1.862-3.191
			c-0.065-0.111-0.037-0.198,0.009-0.295c0.162-0.34,0.381-0.636,0.675-0.873c0.542-0.438,0.556-0.454,0.836-1.05
			c0.109,0.012,0.111,0.117,0.146,0.183c0.487,0.894,0.966,1.792,1.456,2.684c0.078,0.143,0.096,0.281,0.047,0.425
			c-0.126,0.366-0.302,0.71-0.596,0.964C407.027,311.38,406.754,311.701,406.65,312.242z"/>
		<path fill-rule="evenodd" clip-rule="evenodd" fill="#593086" d="M472.503,303.329c0.33-1.11,0.647-2.172,0.958-3.237
			c0.04-0.139,0.128-0.214,0.244-0.272c0.395-0.197,0.809-0.313,1.256-0.264c0.393,0.043,0.754-0.063,1.122-0.276
			c-0.016,0.359-0.143,0.661-0.22,0.97c-0.202,0.812-0.428,1.618-0.632,2.429c-0.05,0.198-0.146,0.312-0.341,0.368
			c-0.319,0.091-0.643,0.139-0.974,0.108C473.196,303.089,473.196,303.087,472.503,303.329z"/>
		<path fill-rule="evenodd" clip-rule="evenodd" fill="#593086" d="M418.355,320.868c0.855,0.527,1.646,1.015,2.438,1.503
			c0.704,0.434,0.894,0.876,0.65,1.688c-0.133,0.445-0.219,0.877-0.065,1.389c-0.594-0.337-1.135-0.644-1.675-0.951
			c-0.468-0.267-0.933-0.545-1.408-0.8c-0.184-0.098-0.254-0.227-0.257-0.426c-0.006-0.333,0.024-0.661,0.157-0.965
			C418.386,321.868,418.49,321.424,418.355,320.868z"/>
		<path fill-rule="evenodd" clip-rule="evenodd" fill="#593086" d="M470.239,312.985c-0.327,0.429-0.612,0.805-0.897,1.181
			c-0.411,0.54-0.829,1.074-1.228,1.622c-0.123,0.167-0.255,0.223-0.454,0.207c-0.322-0.026-0.633-0.095-0.909-0.255
			c-0.418-0.244-0.848-0.427-1.339-0.384c-0.034-0.127,0.056-0.172,0.106-0.233c0.628-0.773,1.262-1.539,1.883-2.318
			c0.141-0.175,0.296-0.254,0.513-0.257c0.398-0.005,0.781,0.058,1.134,0.249C469.4,312.988,469.783,313.019,470.239,312.985z"/>
		<path fill-rule="evenodd" clip-rule="evenodd" fill="#593086" d="M473.2,274.821c0.295,0.706,0.562,1.338,0.828,1.971
			c0.192,0.459,0.375,0.922,0.577,1.378c0.058,0.134,0.047,0.233-0.031,0.351c-0.186,0.276-0.405,0.52-0.681,0.706
			c-0.21,0.143-0.443,0.248-0.63,0.428c-0.174,0.171-0.297,0.379-0.452,0.626c-0.383-0.997-0.73-1.958-1.126-2.898
			c-0.157-0.376-0.096-0.665,0.127-0.967c0.16-0.215,0.321-0.428,0.551-0.566C472.739,275.621,473.013,275.311,473.2,274.821z"/>
		<path fill-rule="evenodd" clip-rule="evenodd" fill="#593086" d="M402.882,293.19c0.125,1.201,0.241,2.326,0.359,3.452
			c0.011,0.094-0.035,0.162-0.087,0.229c-0.246,0.317-0.542,0.581-0.919,0.708c-0.433,0.146-0.813,0.351-1.13,0.79
			c-0.09-0.628-0.171-1.185-0.25-1.741c-0.083-0.588-0.157-1.176-0.248-1.761c-0.031-0.188,0.004-0.321,0.15-0.445
			c0.271-0.231,0.563-0.427,0.908-0.507C402.121,293.808,402.515,293.61,402.882,293.19z"/>
		<path fill-rule="evenodd" clip-rule="evenodd" fill="#593086" d="M468.244,311.655c0.417-0.68,0.814-1.327,1.213-1.975
			c0.139-0.225,0.308-0.438,0.411-0.679c0.155-0.363,0.443-0.449,0.788-0.469c0.33-0.019,0.653,0.004,0.968,0.125
			c0.279,0.107,0.57,0.161,0.872,0.08c0.068-0.018,0.155-0.05,0.203,0.027c0.039,0.061-0.016,0.12-0.047,0.174
			c-0.554,0.964-1.11,1.928-1.663,2.895c-0.061,0.106-0.139,0.146-0.254,0.151c-0.319,0.018-0.637,0.018-0.946-0.082
			c-0.251-0.081-0.484-0.209-0.749-0.257C468.786,311.601,468.536,311.648,468.244,311.655z"/>
		<path fill-rule="evenodd" clip-rule="evenodd" fill="#593086" d="M402.62,278.621c0.48-1.175,0.933-2.271,1.377-3.368
			c0.05-0.125,0.13-0.177,0.254-0.204c0.347-0.074,0.693-0.09,1.041-0.01c0.236,0.054,0.468,0.133,0.715,0.134
			c0.232,0,0.457-0.053,0.674-0.112c0.061,0.114-0.018,0.179-0.049,0.25c-0.408,0.92-0.823,1.835-1.222,2.758
			c-0.082,0.187-0.204,0.282-0.386,0.338c-0.402,0.124-0.807,0.173-1.221,0.067C403.416,278.375,403.039,278.445,402.62,278.621z"/>
		<path fill-rule="evenodd" clip-rule="evenodd" fill="#593086" d="M403.632,283.853c-0.159,0.981-0.352,1.885-0.44,2.798
			c-0.102,1.034-0.553,1.122-1.362,1.271c-0.433,0.081-0.846,0.152-1.259,0.466c0.056-0.473,0.099-0.877,0.151-1.281
			c0.099-0.757,0.21-1.513,0.297-2.271c0.022-0.188,0.105-0.281,0.26-0.353c0.252-0.118,0.517-0.216,0.792-0.218
			C402.607,284.26,403.125,284.212,403.632,283.853z"/>
		<path fill-rule="evenodd" clip-rule="evenodd" fill="#593086" d="M412.08,267.311c-0.324,0.397-0.588,0.724-0.853,1.049
			c-0.416,0.51-0.835,1.017-1.242,1.534c-0.115,0.147-0.244,0.219-0.428,0.226c-0.42,0.018-0.826-0.026-1.203-0.228
			c-0.356-0.19-0.734-0.253-1.209-0.18c0.148-0.191,0.254-0.329,0.361-0.467c0.589-0.778,1.187-1.55,1.766-2.334
			c0.139-0.188,0.287-0.25,0.512-0.223c0.333,0.039,0.65,0.12,0.934,0.293C411.108,267.219,411.517,267.373,412.08,267.311z"/>
		<path fill-rule="evenodd" clip-rule="evenodd" fill="#593086" d="M467.765,266.471c0.783,1.016,1.513,1.963,2.247,2.906
			c0.071,0.092,0.054,0.176,0.023,0.267c-0.123,0.378-0.302,0.728-0.593,1.001c-0.327,0.308-0.545,0.671-0.634,1.11
			c-0.12,0.019-0.141-0.083-0.185-0.144c-0.585-0.806-1.162-1.618-1.754-2.418c-0.141-0.189-0.175-0.37-0.119-0.59
			c0.083-0.334,0.203-0.655,0.43-0.912C467.475,267.359,467.692,266.998,467.765,266.471z"/>
		<path fill-rule="evenodd" clip-rule="evenodd" fill="#593086" d="M404.197,307.852c-0.494-1.166-0.951-2.25-1.415-3.331
			c-0.059-0.137-0.032-0.241,0.042-0.354c0.182-0.279,0.397-0.533,0.688-0.694c0.445-0.246,0.829-0.546,1.069-1.08
			c0.322,0.843,0.619,1.623,0.917,2.403c0.037,0.099,0.076,0.197,0.112,0.297c0.284,0.762,0.161,1.224-0.513,1.711
			C404.732,307.07,404.392,307.344,404.197,307.852z"/>
		<path fill-rule="evenodd" clip-rule="evenodd" fill="#593086" d="M470.617,307.686c0.506-1.124,0.967-2.147,1.426-3.171
			c0.049-0.109,0.135-0.154,0.24-0.191c0.375-0.134,0.764-0.2,1.155-0.12c0.438,0.088,0.857,0.091,1.331-0.134
			c-0.271,0.664-0.513,1.267-0.76,1.869c-0.197,0.48-0.405,0.957-0.59,1.442c-0.065,0.171-0.16,0.253-0.337,0.282
			c-0.318,0.051-0.637,0.074-0.947-0.006C471.657,307.534,471.185,307.449,470.617,307.686z"/>
		<path fill-rule="evenodd" clip-rule="evenodd" fill="#593086" d="M415.432,264.055c-0.731,0.692-1.399,1.339-2.085,1.967
			c-0.189,0.173-0.322,0.452-0.612,0.473c-0.433,0.03-0.851-0.072-1.213-0.311c-0.371-0.245-0.75-0.429-1.205-0.403
			c-0.025-0.125,0.076-0.157,0.13-0.211c0.761-0.768,1.531-1.529,2.288-2.301c0.145-0.147,0.285-0.187,0.48-0.142
			c0.272,0.062,0.542,0.14,0.764,0.304C414.397,263.742,414.823,264.023,415.432,264.055z"/>
		<path fill-rule="evenodd" clip-rule="evenodd" fill="#593086" d="M400.514,290.19c0.004-0.208,0.009-0.417,0.015-0.625
			c0.364-0.317,0.792-0.483,1.268-0.525c0.423-0.038,0.777-0.239,1.097-0.481c0,0.646,0.004,1.276,0,1.906
			c-0.004,0.445-0.026,0.89-0.023,1.334c0.001,0.199-0.068,0.341-0.216,0.466c-0.315,0.263-0.659,0.459-1.067,0.531
			c-0.386,0.069-0.724,0.23-0.998,0.518c-0.121-0.087-0.063-0.215-0.065-0.323C400.517,292.058,400.517,291.125,400.514,290.19z"/>
		<path fill-rule="evenodd" clip-rule="evenodd" fill="#593086" d="M436.717,253.174c0.21-0.004,0.418-0.007,0.628-0.01
			c1.041,0.001,2.083,0.004,3.123,0.005c0.254,0.271,0.415,0.597,0.471,0.954c0.082,0.516,0.184,1.015,0.553,1.406
			c-0.72,0-1.411,0.002-2.103-0.001c-0.36-0.002-0.721-0.037-1.079-0.017c-0.269,0.014-0.44-0.092-0.591-0.29
			c-0.208-0.272-0.4-0.561-0.449-0.9C437.205,253.874,437.011,253.504,436.717,253.174z"/>
		<path fill-rule="evenodd" clip-rule="evenodd" fill="#593086" d="M411.418,314.603c0.647,0.687,1.248,1.326,1.851,1.962
			c0.5,0.525,0.626,1.321,0.263,1.954c-0.219,0.38-0.414,0.755-0.392,1.27c-0.371-0.36-0.697-0.673-1.018-0.99
			c-0.507-0.5-1.006-1.006-1.518-1.5c-0.13-0.126-0.167-0.25-0.127-0.425c0.067-0.292,0.135-0.587,0.319-0.825
			C411.117,315.635,411.383,315.202,411.418,314.603z"/>
		<path fill-rule="evenodd" clip-rule="evenodd" fill="#593086" d="M443.542,329.675c0.756-0.651,0.858-1.458,0.857-2.296
			c-0.001-0.137,0.046-0.183,0.179-0.196c0.316-0.029,0.631-0.069,0.944-0.114c0.127-0.018,0.228,0.021,0.328,0.084
			c0.688,0.436,1.166,1.032,1.435,1.802c0.058,0.162,0.031,0.22-0.131,0.264C446.002,329.528,444.835,329.686,443.542,329.675z"/>
		<path fill-rule="evenodd" clip-rule="evenodd" fill="#593086" d="M443.546,330.424c1.083-0.034,2.054,0.091,3.018,0.3
			c0.042,0.009,0.082,0.023,0.123,0.032c0.755,0.172,0.757,0.173,0.384,0.87c-0.145,0.272-0.349,0.504-0.529,0.752
			c-0.531,0.727-1.253,0.666-2.004,0.527c-0.179-0.033-0.13-0.167-0.122-0.273c0.037-0.431-0.091-0.839-0.185-1.25
			C444.148,331.01,443.898,330.729,443.546,330.424z"/>
		<path fill-rule="evenodd" clip-rule="evenodd" fill="#593086" d="M441.33,325.928c-0.64-0.167-1.245-0.419-1.819-0.744
			c-0.099-0.161,0.084-0.2,0.127-0.3c0.272-0.185,0.544-0.369,0.814-0.554c0.125-0.048,0.236-0.125,0.357-0.181
			c0.244-0.159,0.495-0.301,0.776-0.385c0.13-0.042,0.266-0.07,0.387-0.131c0.259-0.132,0.386-0.023,0.466,0.218
			c0.071,0.21,0.127,0.424,0.143,0.645c0.031,0.417,0.207,0.765,0.483,1.071c0.056,0.063,0.171,0.118,0.074,0.233
			c-0.037,0.003-0.074,0.007-0.111,0.011c-0.236,0.085-0.483,0.141-0.709,0.252l0.003-0.001
			C441.972,326.153,441.661,325.972,441.33,325.928z"/>
		<path fill-rule="evenodd" clip-rule="evenodd" fill="#593086" d="M426.472,330.063c-0.012-0.438,0.038-0.836,0.111-1.232
			c0.032-0.184,0.078-0.257,0.282-0.143c0.599,0.337,1.221,0.631,1.873,0.85c0.176,0.06,0.217,0.146,0.21,0.324
			c-0.022,0.593-0.018,0.586-0.559,0.817c-0.562,0.238-1.136,0.453-1.627,0.831c-0.125,0.097-0.148,0.039-0.166-0.093
			C426.537,330.956,426.445,330.498,426.472,330.063z"/>
		<path fill-rule="evenodd" clip-rule="evenodd" fill="#593086" d="M442.107,334.475c-0.027,0.262-0.028,0.52-0.136,0.756
			c-0.149,0.324-0.239,0.655-0.185,1.014c0.031,0.203-0.086,0.145-0.188,0.105c-0.516-0.199-0.996-0.465-1.451-0.779
			c-0.287-0.198-0.573-0.398-0.864-0.59c-0.129-0.084-0.179-0.147-0.009-0.239c0.774-0.426,1.59-0.744,2.448-0.956
			c0.195-0.048,0.31,0.023,0.334,0.225C442.076,334.168,442.09,334.326,442.107,334.475z"/>
		<path fill-rule="evenodd" clip-rule="evenodd" fill="#593086" d="M456.756,338.921c-0.037,0.014-0.098,0.021-0.138,0.055
			c-0.535,0.45-1.07,0.901-1.601,1.358c-0.102,0.088-0.174,0.093-0.263-0.013c-0.27-0.327-0.542-0.652-0.821-0.971
			c-0.09-0.103-0.053-0.161,0.032-0.231c0.544-0.458,1.086-0.917,1.626-1.378c0.08-0.068,0.137-0.08,0.209,0.009
			c0.284,0.343,0.574,0.681,0.86,1.022C456.68,338.795,456.695,338.824,456.756,338.921z"/>
		<path fill-rule="evenodd" clip-rule="evenodd" fill="#5B3287" d="M423.787,338.582c-0.016,0.092-0.087,0.143-0.146,0.2
			c-0.061,0.059-0.117,0.021-0.167-0.021c-0.556-0.474-1.108-0.949-1.666-1.421c-0.096-0.081-0.053-0.146,0.012-0.208
			c0.055-0.054,0.099-0.172,0.199-0.087c0.581,0.491,1.159,0.987,1.737,1.483C423.771,338.541,423.776,338.563,423.787,338.582z"/>
		<path fill-rule="evenodd" clip-rule="evenodd" fill="#5B3287" d="M453.501,338.817c-0.062-0.065-0.123-0.123-0.176-0.186
			c-0.08-0.093,0.016-0.131,0.066-0.174c0.54-0.459,1.083-0.916,1.62-1.378c0.112-0.098,0.176-0.068,0.257,0.033
			c0.072,0.087,0.096,0.145-0.006,0.23c-0.544,0.457-1.082,0.919-1.622,1.379C453.604,338.754,453.556,338.78,453.501,338.817z"/>
		<path fill-rule="evenodd" clip-rule="evenodd" fill="#582F85" d="M407.334,300.264c0.014-0.067-0.018-0.163,0.082-0.183
			c0.109-0.021,0.101,0.075,0.12,0.144c0.093,0.353,0.201,0.704,0.284,1.061c0.118,0.504,0.327,0.967,0.583,1.412
			c0.075,0.131,0.128,0.262-0.099,0.295C407.816,302.142,407.468,301.241,407.334,300.264z"/>
		<path fill-rule="evenodd" clip-rule="evenodd" fill="#582F85" d="M407.272,297.386c0.155-0.014,0.235,0.078,0.188,0.209
			c-0.108,0.308-0.007,0.606,0.012,0.906c0.026,0.398-0.157,0.79-0.013,1.192c0.049,0.132-0.061,0.184-0.188,0.177
			C407.113,299.042,407.113,298.214,407.272,297.386z"/>
		<path fill-rule="evenodd" clip-rule="evenodd" fill="#582F85" d="M470.1,299.424c-0.222-0.033-0.259-0.205-0.254-0.376
			c0.012-0.378-0.044-0.757,0.037-1.134c0.024-0.104-0.025-0.226-0.05-0.337c-0.038-0.176,0.013-0.289,0.201-0.319
			C470.17,297.977,470.196,298.699,470.1,299.424z"/>
		<path fill-rule="evenodd" clip-rule="evenodd" fill="#582F85" d="M414.729,307.145c-0.071-0.144-0.245-0.013-0.331-0.121
			c0.05-0.103,0.144-0.078,0.225-0.081c0.717-0.032,1.438,0.063,2.153-0.053c0.07-0.012,0.145,0.019,0.151,0.085
			c0.013,0.153-0.195,0.049-0.22,0.173C416.047,307.241,415.388,307.244,414.729,307.145z"/>
		<path fill-rule="evenodd" clip-rule="evenodd" fill="#582F85" d="M468.965,303.06c-0.265,0.042-0.148-0.153-0.087-0.191
			c0.152-0.097,0.167-0.215,0.146-0.369c-0.006-0.047,0.025-0.102,0.047-0.149c0.228-0.486,0.438-0.979,0.585-1.497
			c0.039-0.134,0.124-0.241,0.195-0.006C469.693,301.641,469.386,302.373,468.965,303.06z"/>
		<path fill-rule="evenodd" clip-rule="evenodd" fill="#582F85" d="M460.92,307.148c-0.145-0.161-0.344-0.024-0.528-0.106
			c0.099-0.152,0.246-0.202,0.395-0.149c0.452,0.159,0.906,0.013,1.358,0.028c0.139,0.004,0.334-0.121,0.387,0.056
			c0.05,0.167-0.23,0.021-0.272,0.169C461.814,307.21,461.367,307.208,460.92,307.148z"/>
		<path fill-rule="evenodd" clip-rule="evenodd" fill="#582F85" d="M407.913,295.092c0.089,0.009,0.152,0.061,0.108,0.145
			c-0.086,0.163-0.043,0.398-0.138,0.501c-0.261,0.283-0.201,0.629-0.279,0.945c-0.019,0.072,0.007,0.194-0.125,0.171
			c-0.098-0.016-0.066-0.115-0.08-0.183C407.49,296.12,407.664,295.594,407.913,295.092z"/>
		<path fill-rule="evenodd" clip-rule="evenodd" fill="#8C809C" d="M443.138,325.798c0.001-0.021,0.014-0.052,0.003-0.062
			c-0.435-0.446-0.576-1.004-0.674-1.601c-0.093-0.573-0.128-0.566-0.696-0.398c-0.059,0.018-0.124,0.018-0.186,0.025
			c0.167-0.143,0.386-0.158,0.58-0.236c0.124-0.05,0.17,0.029,0.219,0.117c0.131,0.235,0.217,0.489,0.233,0.754
			c0.029,0.479,0.219,0.875,0.551,1.214C443.288,325.733,443.283,325.738,443.138,325.798z"/>
		<path fill-rule="evenodd" clip-rule="evenodd" fill="#582F85" d="M469.971,300.317c-0.161-0.107-0.23-0.524-0.112-0.667
			c0.028-0.034,0.058-0.075,0.101-0.05c0.114,0.068,0.058,0.191,0.081,0.289C470.051,300.037,470.043,300.183,469.971,300.317z"/>
		<path fill-rule="evenodd" clip-rule="evenodd" fill="#582F85" d="M435.81,299.962c-0.003-0.01-0.006-0.02-0.009-0.03
			c-0.035-0.1-0.282-0.054-0.185-0.222c0.069-0.121,0.229-0.066,0.302,0.017c0.093,0.105,0.193,0.255-0.044,0.337
			C435.852,300.031,435.83,299.996,435.81,299.962z"/>
		<path fill-rule="evenodd" clip-rule="evenodd" fill="#582F85" d="M420.787,305.808c-0.02-0.151,0.04-0.264,0.18-0.315
			c0.096-0.035,0.185-0.017,0.198,0.114C421.057,305.706,420.93,305.772,420.787,305.808z"/>
		<path fill-rule="evenodd" clip-rule="evenodd" fill="#7E7589" d="M441.33,325.928c0.34-0.028,0.65,0.173,0.991,0.132
			c-0.18,0.181-0.366,0.021-0.55,0.003C441.618,326.048,441.464,326.013,441.33,325.928z"/>
		<path fill-rule="evenodd" clip-rule="evenodd" fill="#582F85" d="M451.355,301.738c0.109-0.151,0.198-0.058,0.273,0.03
			c0.071,0.084,0.088,0.172-0.059,0.202C451.484,301.906,451.403,301.838,451.355,301.738z"/>
		<path fill-rule="evenodd" clip-rule="evenodd" fill="#AA95C2" d="M436.525,300.757c-0.365-0.008-0.733,0.054-1.095-0.046
			c0.236-0.004,0.473-0.008,0.711-0.012c0.125,0,0.251-0.001,0.375-0.001c0.017,0.011,0.024,0.024,0.021,0.037
			C436.534,300.75,436.529,300.757,436.525,300.757z"/>
		<path fill-rule="evenodd" clip-rule="evenodd" fill="#746684" d="M442.318,326.062c0.207-0.166,0.454-0.224,0.709-0.252
			C442.814,325.958,442.568,326.016,442.318,326.062z"/>
		<path fill-rule="evenodd" clip-rule="evenodd" fill="#582F85" d="M419.405,306.444c-0.077-0.021-0.194-0.041-0.09-0.146
			c0.109-0.112,0.2-0.036,0.26,0.078C419.529,306.425,419.47,306.444,419.405,306.444z"/>
		<path fill-rule="evenodd" clip-rule="evenodd" fill="#582F85" d="M450.667,300.945c0.011-0.064,0.033-0.133,0.111-0.08
			c0.091,0.062,0.106,0.144,0.007,0.22C450.721,301.059,450.689,301.006,450.667,300.945z"/>
		<path fill-rule="evenodd" clip-rule="evenodd" fill="#7B599C" d="M474.488,293.555c0.059,0.171-0.061,0.372,0.083,0.53
			c-0.072,0.084-0.133,0.079-0.125-0.038C474.457,293.883,474.405,293.712,474.488,293.555z"/>
		<path fill-rule="evenodd" clip-rule="evenodd" fill="#756D82" d="M439.637,324.883c-0.007,0.115-0.154,0.17-0.127,0.3
			C439.37,325.066,439.37,325.066,439.637,324.883z"/>
		<path fill-rule="evenodd" clip-rule="evenodd" fill="#582F85" d="M469.909,300.635c-0.077-0.004-0.146-0.025-0.168-0.107
			c-0.005-0.019,0.025-0.063,0.045-0.067c0.102-0.019,0.114,0.06,0.13,0.132C469.93,300.61,469.927,300.624,469.909,300.635z"/>
		<path fill-rule="evenodd" clip-rule="evenodd" fill="#582F85" d="M426.011,301.72c-0.056-0.042-0.088-0.097-0.034-0.155
			c0.053-0.058,0.111-0.032,0.157,0.023C426.111,301.65,426.075,301.697,426.011,301.72z"/>
		<path fill-rule="evenodd" clip-rule="evenodd" fill="#7A6E88" d="M440.809,324.148c-0.101,0.097-0.204,0.188-0.357,0.181
			C440.553,324.236,440.655,324.141,440.809,324.148z"/>
		<path fill-rule="evenodd" clip-rule="evenodd" fill="#582F85" d="M441.306,300.319c-0.053-0.029-0.13-0.056-0.084-0.132
			c0.038-0.066,0.1-0.062,0.145,0.01C441.368,300.249,441.354,300.292,441.306,300.319z"/>
		<path fill-rule="evenodd" clip-rule="evenodd" fill="#FFE024" d="M434.163,296.568c-0.174-0.013-0.347-0.027-0.516,0.042
			c-0.117,0.133-0.247,0.075-0.375,0.023c-0.109-0.013-0.216-0.013-0.316,0.041c-0.078,0.091-0.167,0.078-0.259,0.021
			c-0.131-0.006-0.268-0.043-0.387,0.051c-0.035,0.042-0.078,0.036-0.121,0.012c-0.789,0.036-1.561,0.184-2.331,0.339
			c-0.584,0.118-1.166,0.246-1.711,0.497c-0.17,0.079-0.35,0.146-0.472,0.304c-0.05,0.165-0.048,0.335-0.056,0.503
			c0.305,0.313,0.303,0.313,0.005,0.692c-0.052,0.065-0.095,0.137-0.142,0.206c-0.022,0.12-0.068,0.219-0.201,0.248
			c-0.088,0.063-0.158,0.141-0.195,0.245c-0.164,0.258-0.282,0.551-0.572,0.706c-0.736,0.838-1.525,1.624-2.36,2.364
			c-0.093,0.19-0.257,0.294-0.449,0.362c-0.21,0.156-0.42,0.313-0.63,0.469c-0.026,0.095-0.101,0.123-0.188,0.13
			c-1.208,0.809-2.477,1.502-3.813,2.074c-0.495,0.212-1.021,0.332-1.543,0.462c-0.115,0.098-0.247,0.095-0.383,0.065
			c-0.282,0.015-0.567-0.003-0.845,0.063c-0.3,0.197-0.587,0.054-0.876-0.03c-0.084-0.004-0.167-0.01-0.251-0.014
			c-0.186,0.1-0.349,0.027-0.508-0.069c-1.237-0.245-2.388-0.698-3.424-1.423c-0.545-0.382-1.02-0.845-1.482-1.32
			c-0.461-0.388-0.795-0.865-1.011-1.426c-0.489-0.897-0.828-1.853-0.973-2.862c-0.215-1.494-0.044-2.952,0.522-4.357
			c0.021-0.048,0.032-0.099,0.049-0.148c0.551-1.195,1.287-2.253,2.305-3.102c0.138-0.115,0.278-0.227,0.439-0.358
			c-0.936-0.696-1.693-1.533-2.277-2.525c-2.804-4.773-0.251-10.908,5.128-12.301c1.918-0.498,3.788-0.32,5.586,0.512
			c1.558,0.72,3.05,1.548,4.375,2.652c1.15,0.958,2.208,2.017,3.269,3.068c1.054,1.041,2.255,1.762,3.722,2.026
			c0.155,0.028,0.32,0.059,0.467,0.06c0.308,0.001,0.413,0.167,0.511,0.407c0.99,2.409,1.941,4.832,2.615,7.353
			c0.235,0.878,0.427,1.769,0.505,2.678c0.026,0.316,0.125,0.409,0.458,0.375c0.58-0.059,1.166-0.054,1.749-0.059
			c0.164-0.001,0.208-0.038,0.219-0.206c0.099-1.671,0.205-3.341,0.317-5.011c0.139-2.051,0.29-4.101,0.426-6.152
			c0.099-1.471,0.168-2.942,0.279-4.412c0.053-0.694,0.047-1.395,0.174-2.083c0.047-0.034,0.092-0.034,0.138,0.003
			c0.084,0.112,0.053,0.245,0.062,0.37c0.099,1.47,0.198,2.941,0.295,4.412c0.073,1.122,0.141,2.243,0.214,3.364
			c0.073,1.09,0.152,2.179,0.223,3.269c0.077,1.152,0.146,2.305,0.223,3.458c0.061,0.931,0.129,1.86,0.188,2.791
			c0.007,0.121,0.042,0.163,0.167,0.167c0.667,0.016,1.336,0.03,2.002,0.068c0.272,0.016,0.225-0.182,0.238-0.313
			c0.105-0.97,0.296-1.926,0.551-2.864c0.606-2.231,1.434-4.387,2.301-6.528c0.114-0.282,0.248-0.557,0.347-0.843
			c0.065-0.189,0.179-0.262,0.364-0.278c1.555-0.134,2.872-0.776,3.989-1.855c0.946-0.914,1.89-1.829,2.855-2.722
			c1.311-1.216,2.811-2.151,4.414-2.937c0.931-0.456,1.88-0.826,2.913-0.978c1.592-0.234,3.119-0.017,4.576,0.641
			c2.617,1.183,4.239,3.215,4.816,6.004c0.522,2.516-0.098,4.813-1.674,6.846c-0.405,0.523-0.881,0.976-1.404,1.378
			c-0.127,0.098-0.18,0.144-0.019,0.267c1.314,1.015,2.215,2.328,2.793,3.875c0.3,0.94,0.474,1.904,0.452,2.892
			c-0.024,1.039-0.235,2.044-0.63,3.008c-0.028,0.067-0.045,0.139-0.069,0.208c-0.22,0.646-0.529,1.237-1.025,1.718
			c-0.037,0.044-0.074,0.089-0.111,0.134c-0.001,0.131-0.079,0.206-0.195,0.248c-0.537,0.541-1.085,1.066-1.725,1.491
			c-1.012,0.673-2.127,1.073-3.309,1.31c-0.219,0.141-0.451,0.169-0.698,0.081c-0.36,0.001-0.723,0.001-1.083,0.002
			c-0.289,0.14-0.554,0.061-0.814-0.081c-1.437-0.216-2.715-0.869-3.947-1.565c-2.01-1.135-3.791-2.579-5.252-4.388
			c-0.012-0.016-0.033-0.024-0.05-0.035c-0.135-0.029-0.182-0.125-0.198-0.249c-0.096-0.134-0.166-0.29-0.311-0.386
			c-0.102-0.055-0.189-0.123-0.201-0.251c-0.112-0.162-0.214-0.332-0.374-0.455c-0.101-0.019-0.155-0.075-0.149-0.182
			c-0.087-0.108-0.047-0.166,0.061-0.244c0.469-0.341,0.451-0.598-0.05-0.893c-0.423-0.248-0.895-0.365-1.36-0.483
			c-0.829-0.209-1.674-0.342-2.523-0.455c-0.127-0.017-0.25-0.036-0.377-0.02c-0.045,0.029-0.09,0.025-0.131-0.01
			c-0.095-0.082-0.206-0.063-0.316-0.053c-0.128,0.054-0.257,0.112-0.375-0.022c-0.145-0.07-0.299-0.054-0.453-0.042
			c-0.087,0.055-0.171,0.067-0.245-0.024c-0.148-0.065-0.3-0.052-0.455-0.039c-0.152,0.095-0.3,0.111-0.439-0.025
			c-0.275-0.084-0.556-0.044-0.835-0.039c-0.108,0.07-0.213,0.084-0.315-0.012c-0.208-0.081-0.426-0.062-0.642-0.05
			c-0.127,0.063-0.254,0.097-0.381-0.001c-0.149,0-0.297,0-0.446,0c-0.042,0.028-0.088,0.039-0.139,0.034
			c-0.191-0.039-0.383-0.032-0.575,0c-0.035,0.003-0.069,0.001-0.103-0.003c-0.456-0.031-0.909-0.029-1.363,0.001
			c-0.034,0.005-0.068,0.006-0.104,0.004c-0.21-0.036-0.421-0.041-0.632-0.002c-0.052,0.006-0.099-0.006-0.142-0.035
			c-0.149,0-0.297,0-0.446,0c-0.106,0.075-0.213,0.075-0.319,0.001c-0.235-0.014-0.47-0.026-0.697,0.052
			c-0.083,0.078-0.17,0.067-0.257,0.01c-0.299,0-0.6-0.053-0.894,0.049C434.42,296.645,434.293,296.626,434.163,296.568z"/>
		<path fill-rule="evenodd" clip-rule="evenodd" fill="#FFE024" d="M429.786,278.57c-0.82-0.632-1.496-1.304-2.14-2.006
			c-1.573-1.715-2.817-3.661-3.587-5.845c-1.086-3.079-0.479-5.916,1.666-8.38c1.274-1.464,2.916-2.347,4.825-2.651
			c2.344-0.373,4.495,0.161,6.404,1.591c0.578,0.433,1.098,0.931,1.53,1.515c0.115,0.156,0.19,0.178,0.325,0.004
			c1.297-1.674,3-2.727,5.072-3.109c2.511-0.462,4.792,0.138,6.785,1.734c1.762,1.413,2.755,3.28,3.051,5.508
			c0.204,1.543-0.05,3.031-0.707,4.44c-0.696,1.495-1.488,2.935-2.53,4.225c-0.847,1.049-1.781,2.009-2.885,2.903
			c0.013-0.463,0.118-0.848,0.154-1.24c0.168-1.941-0.276-3.735-1.24-5.414c-0.635-1.11-1.544-1.978-2.48-2.826
			c-1.13-1.025-2.298-2.009-3.435-3.026c-0.888-0.794-1.488-1.802-1.893-2.978c-0.148,0.347-0.271,0.662-0.416,0.968
			c-0.538,1.137-1.398,2-2.351,2.793c-1.345,1.12-2.667,2.27-3.882,3.529c-1.291,1.338-2.037,2.964-2.347,4.797
			c-0.177,1.037-0.145,2.064,0.059,3.091C429.783,278.295,429.777,278.401,429.786,278.57z"/>
		<path fill-rule="evenodd" clip-rule="evenodd" fill="#DEBF5F" d="M438.752,277.761c-0.046,0-0.092-0.002-0.138-0.003
			c0.004-0.125,0.011-0.25,0.015-0.375c0.068-0.036,0.084,0.023,0.112,0.062C438.745,277.55,438.749,277.656,438.752,277.761z"/>
		<path fill-rule="evenodd" clip-rule="evenodd" fill="#C8A972" d="M438.742,277.444c-0.037-0.021-0.076-0.042-0.112-0.062
			c0.001-0.104,0.003-0.208,0.004-0.313c0.034-0.046,0.069-0.046,0.104,0.001C438.739,277.195,438.74,277.32,438.742,277.444z"/>
		<path fill-rule="evenodd" clip-rule="evenodd" fill="#8E6C85" d="M438.737,277.071c-0.034-0.001-0.07-0.001-0.104-0.001
			c-0.004-0.064-0.044-0.164,0.052-0.164C438.78,276.906,438.74,277.007,438.737,277.071z"/>
		<path fill-rule="evenodd" clip-rule="evenodd" fill="#FFE026" d="M436.525,300.757c-0.003-0.02-0.006-0.039-0.009-0.059
			c0.012-0.272-0.19-0.477-0.238-0.718c0.452,0,0.893-0.003,1.334,0.001c1.07,0.01,2.14,0.031,3.208-0.045
			c0.191-0.014,0.265,0.024,0.154,0.22c-0.052,0.088-0.075,0.193-0.111,0.291c0.015,0.079-0.036,0.133-0.074,0.193
			c-0.22,0.179-0.485,0.097-0.726,0.102c-0.25,0.005-0.331,0.067-0.367,0.331c-0.203,1.504-0.433,3.004-0.656,4.505
			c-0.096,0.646-0.198,1.292-0.297,1.939c-0.04,0.039-0.082,0.039-0.123,0.001c-0.104-0.677-0.217-1.354-0.314-2.031
			c-0.219-1.501-0.432-3.004-0.643-4.506c-0.019-0.143-0.071-0.202-0.219-0.202C437.138,300.779,436.832,300.765,436.525,300.757z"
			/>
		<path fill-rule="evenodd" clip-rule="evenodd" fill="#FFE026" d="M439.324,312.932c-0.133,0.523-0.271,1.045-0.393,1.571
			c-0.039,0.161-0.083,0.204-0.254,0.146c-1.402-0.476-2.808-0.942-4.212-1.411c-0.117-0.039-0.18-0.081-0.091-0.216
			c0.372-0.568,0.674-1.174,0.953-1.79c0.09-0.202,0.161-0.157,0.292-0.055c0.833,0.642,1.735,1.171,2.667,1.652
			c0.275,0.142,0.506,0.164,0.757-0.012c0.059-0.041,0.136-0.059,0.204-0.088C439.417,312.742,439.352,312.844,439.324,312.932z"/>
		<path fill-rule="evenodd" clip-rule="evenodd" fill="#582F85" d="M439.453,296.417c0.019,0.01,0.04,0.01,0.061,0
			c0.192-0.029,0.384-0.029,0.576,0c0.042,0.007,0.084,0.015,0.125,0.023c-0.019,0.173-0.145,0.182-0.279,0.181
			c-0.833-0.001-1.666-0.001-2.5,0c-0.133,0-0.259-0.007-0.278-0.181c0.042-0.007,0.083-0.016,0.125-0.023
			c0.214-0.029,0.427-0.029,0.64,0c0.022,0,0.044-0.002,0.066-0.003C438.477,296.392,438.965,296.386,439.453,296.417z"/>
		<path fill-rule="evenodd" clip-rule="evenodd" fill="#582F85" d="M467.916,303.178c0.386-0.547,0.721-1.123,1.025-1.718
			c0.112,0.086,0.077,0.188,0.025,0.284c-0.235,0.425-0.421,0.876-0.708,1.274C468.168,303.145,468.069,303.211,467.916,303.178z"/>
		<path fill-rule="evenodd" clip-rule="evenodd" fill="#582F85" d="M408.749,302.204c0.316,0.49,0.642,0.974,1.011,1.426
			c-0.007,0.095-0.05,0.11-0.114,0.042c-0.278-0.296-0.569-0.58-0.796-0.923C408.734,302.576,408.734,302.395,408.749,302.204z"/>
		<path fill-rule="evenodd" clip-rule="evenodd" fill="#582F85" d="M415.426,306.457c0.292,0.01,0.583,0.02,0.876,0.03
			c0.14,0.047,0.415-0.059,0.409,0.082c-0.01,0.216-0.271,0.103-0.421,0.114c-0.239,0.018-0.483,0.018-0.723-0.003
			C415.472,306.672,415.228,306.685,415.426,306.457z"/>
		<path fill-rule="evenodd" clip-rule="evenodd" fill="#582F85" d="M459.98,306.363c0.272,0.027,0.542,0.054,0.814,0.081
			c-0.176,0.339-0.659,0.173-0.896-0.046C459.927,306.387,459.954,306.375,459.98,306.363z"/>
		<path fill-rule="evenodd" clip-rule="evenodd" fill="#582F85" d="M426.513,300.499c0.176-0.247,0.351-0.495,0.572-0.706
			c-0.006,0.331-0.23,0.531-0.442,0.738C426.596,300.576,426.546,300.553,426.513,300.499z"/>
		<path fill-rule="evenodd" clip-rule="evenodd" fill="#582F85" d="M461.878,306.441c0.232-0.026,0.466-0.054,0.698-0.081
			C462.432,306.684,462.183,306.713,461.878,306.441z"/>
		<path fill-rule="evenodd" clip-rule="evenodd" fill="#582F85" d="M441.684,296.492c0.105,0.004,0.21,0.008,0.315,0.012
			c-0.101,0.164-0.41,0.249-0.55,0.149c-0.024-0.017-0.05-0.045-0.055-0.072c-0.007-0.046,0.022-0.078,0.071-0.081
			C441.538,296.496,441.612,296.495,441.684,296.492z"/>
		<path fill-rule="evenodd" clip-rule="evenodd" fill="#582F85" d="M423.704,303.225c0.133-0.142,0.285-0.26,0.449-0.362
			c0.106,0.086,0.069,0.22-0.02,0.219C423.962,303.078,423.935,303.465,423.704,303.225z"/>
		<path fill-rule="evenodd" clip-rule="evenodd" fill="#582F85" d="M435.437,296.503c0.085-0.004,0.171-0.007,0.257-0.01
			c0.072,0.003,0.145,0.001,0.217,0.01c0.023,0.003,0.065,0.037,0.062,0.05c-0.006,0.036-0.03,0.096-0.052,0.098
			C435.741,296.67,435.522,296.796,435.437,296.503z"/>
		<path fill-rule="evenodd" clip-rule="evenodd" fill="#582F85" d="M431.608,299.561c0-0.087-0.163-0.042-0.129-0.136
			c0.031-0.082,0.126-0.079,0.187-0.029c0.094,0.079,0.173,0.091,0.272,0.005c0.056-0.049,0.127-0.021,0.149,0.049
			c0.028,0.092-0.049,0.098-0.111,0.1c-0.124,0.005-0.25,0.007-0.375,0.009L431.608,299.561z"/>
		<path fill-rule="evenodd" clip-rule="evenodd" fill="#582F85" d="M414.667,306.374c0.17,0.023,0.338,0.046,0.508,0.069
			C414.89,306.693,414.845,306.687,414.667,306.374z"/>
		<path fill-rule="evenodd" clip-rule="evenodd" fill="#582F85" d="M427.619,298.402c-0.149-0.186-0.112-0.353,0.056-0.503
			C427.752,298.078,427.788,298.251,427.619,298.402z"/>
		<path fill-rule="evenodd" clip-rule="evenodd" fill="#582F85" d="M442.834,296.543c0.146,0.008,0.292,0.017,0.439,0.025
			c-0.014,0.143-0.105,0.183-0.234,0.18C442.903,296.745,442.83,296.684,442.834,296.543z"/>
		<path fill-rule="evenodd" clip-rule="evenodd" fill="#582F85" d="M444.426,296.673c0.125,0.007,0.251,0.015,0.375,0.022
			c-0.058,0.088-0.121,0.182-0.238,0.174C444.452,296.863,444.306,296.853,444.426,296.673z"/>
		<path fill-rule="evenodd" clip-rule="evenodd" fill="#582F85" d="M433.272,296.633c0.125-0.008,0.25-0.016,0.375-0.023
			c0.12,0.215-0.048,0.197-0.167,0.192C433.381,296.799,433.324,296.711,433.272,296.633z"/>
		<path fill-rule="evenodd" clip-rule="evenodd" fill="#582F85" d="M432.697,296.695c0.086-0.007,0.173-0.015,0.259-0.021
			c0.179,0.081,0.111,0.154-0.018,0.19C432.808,296.901,432.715,296.842,432.697,296.695z"/>
		<path fill-rule="evenodd" clip-rule="evenodd" fill="#582F85" d="M430.938,299.348c0.022-0.074,0.071-0.11,0.141-0.105
			c0.093,0.007,0.16,0.068,0.186,0.149c0.024,0.071-0.037,0.097-0.091,0.063C431.098,299.409,430.974,299.469,430.938,299.348z"/>
		<path fill-rule="evenodd" clip-rule="evenodd" fill="#582F85" d="M440.661,296.44c0.127,0,0.254,0,0.381,0.001
			C440.916,296.659,440.789,296.744,440.661,296.44z"/>
		<path fill-rule="evenodd" clip-rule="evenodd" fill="#582F85" d="M443.728,296.607c0.083,0.007,0.164,0.016,0.245,0.024
			c0.008,0.126-0.04,0.208-0.179,0.17C443.692,296.774,443.62,296.716,443.728,296.607z"/>
		<path fill-rule="evenodd" clip-rule="evenodd" fill="#582F85" d="M417.148,306.424c0.121-0.06,0.251-0.066,0.383-0.065
			C417.423,306.497,417.321,306.676,417.148,306.424z"/>
		<path fill-rule="evenodd" clip-rule="evenodd" fill="#582F85" d="M461.407,306.563c-0.01,0.079-0.061,0.111-0.129,0.115
			c-0.069,0.003-0.128-0.032-0.136-0.101c-0.007-0.067,0.056-0.08,0.109-0.078C461.311,306.501,461.383,306.48,461.407,306.563z"/>
		<path fill-rule="evenodd" clip-rule="evenodd" fill="#582F85" d="M450.532,300.127c0.066,0.083,0.131,0.166,0.198,0.249
			c-0.052,0.073-0.122,0.09-0.176,0.019C450.498,300.316,450.421,300.225,450.532,300.127z"/>
		<path fill-rule="evenodd" clip-rule="evenodd" fill="#582F85" d="M436.392,296.441c0.106-0.001,0.213-0.001,0.319-0.001
			c-0.012,0.104-0.059,0.18-0.174,0.171C436.439,296.604,436.4,296.531,436.392,296.441z"/>
		<path fill-rule="evenodd" clip-rule="evenodd" fill="#582F85" d="M422.887,303.823c0.062-0.043,0.124-0.087,0.188-0.13
			c0.061,0.012,0.144,0.029,0.092,0.106C423.094,303.911,422.989,303.919,422.887,303.823z"/>
		<path fill-rule="evenodd" clip-rule="evenodd" fill="#582F85" d="M467.609,303.56c0.065-0.083,0.13-0.166,0.195-0.248
			c0.053,0.03,0.128,0.066,0.074,0.133C467.815,303.523,467.747,303.635,467.609,303.56z"/>
		<path fill-rule="evenodd" clip-rule="evenodd" fill="#582F85" d="M427.28,299.548c0.05-0.096,0.111-0.184,0.201-0.248
			C427.57,299.509,427.508,299.597,427.28,299.548z"/>
		<path fill-rule="evenodd" clip-rule="evenodd" fill="#582F85" d="M449.498,298.854c0.05,0.061,0.099,0.121,0.149,0.182
			c-0.006,0.112-0.069,0.113-0.138,0.058C449.425,299.024,449.368,298.94,449.498,298.854z"/>
		<path fill-rule="evenodd" clip-rule="evenodd" fill="#582F85" d="M445.117,296.749c0.044,0.003,0.087,0.007,0.131,0.01
			c-0.01,0.095-0.074,0.122-0.158,0.115c-0.047-0.003-0.126,0.011-0.123-0.059C444.972,296.725,445.061,296.76,445.117,296.749z"/>
		<path fill-rule="evenodd" clip-rule="evenodd" fill="#582F85" d="M434.163,296.568c0.127-0.006,0.254-0.011,0.38-0.016
			C434.425,296.744,434.297,296.732,434.163,296.568z"/>
		<path fill-rule="evenodd" clip-rule="evenodd" fill="#DDBD60" d="M438.622,307.517c0.042,0,0.083-0.001,0.123-0.001
			c-0.006,0.096-0.012,0.192-0.022,0.367C438.605,307.723,438.61,307.621,438.622,307.517z"/>
		<path fill-rule="evenodd" clip-rule="evenodd" fill="#582F85" d="M463.124,306.938c-0.018,0.07-0.074,0.064-0.124,0.062
			c-0.044-0.001-0.086-0.028-0.077-0.075c0.009-0.052,0.046-0.094,0.108-0.088C463.087,306.844,463.121,306.88,463.124,306.938z"/>
		<path fill-rule="evenodd" clip-rule="evenodd" fill="#582F85" d="M432.188,296.759c0.04-0.004,0.082-0.009,0.121-0.012
			c0.049,0.01,0.112,0.01,0.105,0.078c-0.004,0.032-0.042,0.082-0.069,0.085C432.237,296.925,432.236,296.816,432.188,296.759z"/>
		<path fill-rule="evenodd" clip-rule="evenodd" fill="#582F85" d="M450.021,299.49c0.068,0.084,0.134,0.167,0.201,0.251
			C450.042,299.748,449.956,299.679,450.021,299.49z"/>
		<path fill-rule="evenodd" clip-rule="evenodd" fill="#582F85" d="M446.734,299.21c0.049-0.002,0.079,0.024,0.083,0.069
			c0.006,0.048-0.03,0.08-0.074,0.075c-0.028-0.003-0.085,0.051-0.088-0.024C446.653,299.278,446.676,299.229,446.734,299.21z"/>
		<path fill-rule="evenodd" clip-rule="evenodd" fill="#582F85" d="M407.334,297c0.058,0.048,0.17,0.039,0.158,0.155
			c-0.001,0.011-0.034,0.026-0.05,0.026c-0.128-0.006-0.093-0.11-0.108-0.184V297z"/>
		<path fill-rule="evenodd" clip-rule="evenodd" fill="#582F85" d="M444.206,299.617c-0.014,0.052-0.053,0.063-0.093,0.048
			c-0.024-0.008-0.053-0.041-0.052-0.063c0.001-0.042,0.034-0.078,0.08-0.073C444.186,299.534,444.206,299.571,444.206,299.617z"/>
		<path fill-rule="evenodd" clip-rule="evenodd" fill="#582F85" d="M446.665,299.433c-0.078-0.029-0.188,0.037-0.241-0.08
			c0.081-0.079,0.152,0.027,0.226,0.007c0.004,0.025,0.007,0.049,0.01,0.075L446.665,299.433z"/>
		<path fill-rule="evenodd" clip-rule="evenodd" fill="#D4B369" d="M439.324,312.932c-0.023-0.068,0.012-0.159-0.077-0.203
			c0.032-0.047,0.088-0.085,0.121-0.028C439.413,312.777,439.38,312.863,439.324,312.932z"/>
		<path fill-rule="evenodd" clip-rule="evenodd" fill="#582F85" d="M440.79,300.639c0.023-0.064,0.049-0.129,0.074-0.193
			C440.945,300.55,440.892,300.604,440.79,300.639z"/>
		<path fill-rule="evenodd" clip-rule="evenodd" fill="#593085" d="M414.655,312.114c0.559-0.227,1.085-0.443,1.614-0.656
			c1.632-0.657,3.266-1.307,4.895-1.975c0.214-0.088,0.341-0.047,0.498,0.099c0.545,0.504,1.098,1,1.658,1.487
			c0.146,0.126,0.163,0.242,0.112,0.415c-0.621,2.17-1.24,4.341-1.849,6.516c-0.065,0.233-0.109,0.287-0.306,0.099
			c-0.398-0.38-0.812-0.747-1.228-1.108c-0.122-0.105-0.151-0.202-0.104-0.354c0.124-0.405,0.225-0.817,0.354-1.221
			c0.05-0.157,0.016-0.252-0.102-0.357c-0.734-0.658-1.467-1.318-2.195-1.984c-0.118-0.109-0.219-0.126-0.365-0.064
			c-0.39,0.166-0.786,0.315-1.179,0.474c-0.111,0.044-0.203,0.082-0.315-0.022C415.664,313.016,415.173,312.582,414.655,312.114z
			 M419.316,312.334c0.501,0.456,0.968,0.879,1.471,1.335c0.202-0.733,0.393-1.421,0.602-2.175
			C420.668,311.788,420.015,312.052,419.316,312.334z"/>
		<path fill-rule="evenodd" clip-rule="evenodd" fill="#582F85" d="M463.87,291.009c-0.061,2.671-1.03,5.094-3.233,6.938
			c-1.291,1.08-2.804,1.634-4.488,1.711c-0.207,0.01-0.184-0.059-0.142-0.217c0.34-1.288,0.29-2.552-0.311-3.758
			c-0.483-0.975-1.167-1.772-2.237-2.125c-0.981-0.323-1.916-0.077-2.808,0.358c-1.051,0.513-1.87,1.301-2.548,2.24
			c-0.104,0.143-0.185,0.178-0.353,0.142c-1.307-0.275-2.629-0.442-3.962-0.519c-0.273-0.016-0.303-0.13-0.254-0.351
			c0.863-3.957,2.641-7.423,5.57-10.251c1.444-1.394,3.096-2.478,5.088-2.905c2.5-0.536,4.754,0.027,6.685,1.723
			c1.71,1.503,2.626,3.431,2.917,5.677C463.844,290.066,463.832,290.457,463.87,291.009z"/>
		<path fill-rule="evenodd" clip-rule="evenodd" fill="#582F85" d="M421.415,299.676c-1.733-0.02-3.256-0.568-4.577-1.626
			c-1.902-1.525-2.951-3.544-3.241-5.949c-0.331-2.756,0.353-5.241,2.177-7.354c1.991-2.307,5.128-3.253,8.167-2.243
			c1.976,0.657,3.597,1.855,4.998,3.36c2.235,2.401,3.738,5.214,4.604,8.372c0.125,0.455,0.236,0.914,0.319,1.379
			c0.024,0.131,0.004,0.165-0.124,0.175c-0.952,0.073-1.9,0.17-2.843,0.313c-0.417,0.063-0.838,0.122-1.248,0.222
			c-0.182,0.044-0.265,0.006-0.365-0.134c-0.755-1.05-1.685-1.897-2.893-2.398c-1.812-0.751-3.349-0.268-4.41,1.387
			c-0.872,1.362-1.022,2.827-0.579,4.368C421.409,299.577,421.407,299.61,421.415,299.676z"/>
		<path fill-rule="evenodd" clip-rule="evenodd" fill="#EDE5DF" d="M439.453,296.417c-0.488,0-0.976-0.002-1.463-0.003
			C438.477,296.341,438.965,296.333,439.453,296.417z"/>
		<path fill-rule="evenodd" clip-rule="evenodd" fill="#EFE7E1" d="M437.923,296.417c-0.213,0-0.427,0-0.64,0
			C437.497,296.338,437.71,296.337,437.923,296.417z"/>
		<path fill-rule="evenodd" clip-rule="evenodd" fill="#EFE7E1" d="M440.089,296.417c-0.192,0-0.384,0-0.576,0
			C439.705,296.334,439.897,296.335,440.089,296.417z"/>
		<path fill-rule="evenodd" clip-rule="evenodd" fill="#FFE026" d="M459.315,292.428c-0.517-0.366-1.045-0.719-1.547-1.104
			c-0.182-0.141-0.288-0.128-0.459,0.004c-0.436,0.337-0.888,0.651-1.336,0.97c-0.109,0.079-0.208,0.183-0.381,0.179
			c0.208-0.64,0.397-1.277,0.626-1.902c0.088-0.243,0.018-0.361-0.171-0.493c-0.544-0.384-1.078-0.783-1.608-1.244
			c0.213,0,0.425,0,0.638,0c0.489,0,0.977-0.007,1.465,0.003c0.174,0.004,0.255-0.041,0.31-0.223
			c0.204-0.67,0.433-1.333,0.664-2.036c0.194,0.301,0.235,0.618,0.345,0.909c0.124,0.335,0.236,0.677,0.323,1.023
			c0.061,0.246,0.163,0.34,0.432,0.331c0.667-0.023,1.336-0.007,2.047-0.007c-0.17,0.23-0.4,0.333-0.589,0.481
			c-0.368,0.284-0.741,0.564-1.128,0.822c-0.16,0.105-0.168,0.201-0.117,0.36c0.195,0.591,0.38,1.186,0.569,1.779
			C459.437,292.369,459.432,292.43,459.315,292.428z"/>
		<path fill-rule="evenodd" clip-rule="evenodd" fill="#DBBB62" d="M459.315,292.428c0.063-0.027,0.063-0.091,0.081-0.146
			c0.052,0.075,0.117,0.164,0.049,0.24C459.412,292.56,459.345,292.482,459.315,292.428z"/>
		<path fill-rule="evenodd" clip-rule="evenodd" fill="#FFE026" d="M416.755,288.86c0.686,0,1.373-0.009,2.059,0.005
			c0.222,0.004,0.311-0.073,0.371-0.28c0.195-0.653,0.414-1.299,0.686-1.946c0.219,0.661,0.451,1.316,0.646,1.983
			c0.061,0.204,0.158,0.241,0.334,0.239c0.687-0.004,1.376-0.001,2.099-0.001c-0.109,0.209-0.302,0.285-0.451,0.4
			c-0.402,0.31-0.813,0.609-1.231,0.896c-0.164,0.112-0.184,0.21-0.119,0.394c0.226,0.655,0.429,1.317,0.669,2.066
			c-0.464-0.332-0.86-0.615-1.257-0.897c-0.241-0.17-0.486-0.466-0.727-0.465c-0.244,0.001-0.485,0.302-0.729,0.469
			c-0.379,0.262-0.72,0.584-1.213,0.812c0.176-0.547,0.33-1.033,0.488-1.518c0.234-0.71,0.234-0.71-0.375-1.156
			c-0.425-0.311-0.848-0.626-1.272-0.939C416.739,288.902,416.746,288.881,416.755,288.86z"/>
	</g>
	<g>
	</g>
	<g>
	</g>
	<g>
	</g>
	<g>
	</g>
	<g>
	</g>
	<g>
	</g>
	<g>
	</g>
	<g>
	</g>
	<g>
	</g>
	<g>
	</g>
	<g>
	</g>
	<g>
	</g>
	<g>
	</g>
	<g>
	</g>
	<g>
	</g>
</g>
</svg>
